<svg width="203" height="14" fill="none" xmlns="http://www.w3.org/2000/svg"><path d="M12.87.616c-.432.024-.75.072-.954.144a.648.648 0 00-.396.414c-.072.204-.108.534-.108.99v8.928c0 .456.036.786.108.99a.648.648 0 00.396.414c.204.072.522.12.954.144V13c-.504-.036-1.272-.054-2.304-.054-.972 0-1.734.018-2.286.054v-.36c.432-.024.744-.072.936-.144a.647.647 0 00.414-.414c.072-.204.108-.534.108-.99v-4.32h-5.85v4.32c0 .456.036.786.108.99a.648.648 0 00.396.414c.204.072.522.12.954.144V13a37.257 37.257 0 00-2.286-.054c-1.032 0-1.8.018-2.304.054v-.36c.432-.024.744-.072.936-.144a.647.647 0 00.414-.414c.072-.204.108-.534.108-.99V2.164c0-.456-.036-.786-.108-.99A.647.647 0 001.692.76C1.5.688 1.188.64.756.616v-.36C1.26.292 2.028.31 3.06.31c.96 0 1.722-.018 2.286-.054v.36c-.432.024-.75.072-.954.144a.648.648 0 00-.396.414c-.072.204-.108.534-.108.99v4.248h5.85V2.164c0-.456-.036-.786-.108-.99A.647.647 0 009.216.76C9.024.688 8.712.64 8.28.616v-.36c.552.036 1.314.054 2.286.054 1.032 0 1.8-.018 2.304-.054v.36zm10.725 10.08c0 .684.042 1.452.126 2.304-.816-.036-2.19-.054-4.122-.054-2.304 0-4.044.018-5.22.054v-.36c.432-.024.744-.072.936-.144a.647.647 0 00.414-.414c.072-.204.108-.534.108-.99V2.164c0-.456-.036-.786-.108-.99a.647.647 0 00-.414-.414c-.192-.072-.504-.12-.936-.144v-.36c1.176.036 2.916.054 5.22.054 1.764 0 3.018-.018 3.762-.054-.084.792-.126 1.5-.126 2.124 0 .468.018.84.054 1.116h-.414c-.084-.78-.192-1.356-.324-1.728-.132-.384-.354-.66-.666-.828-.312-.18-.786-.27-1.422-.27h-1.494c-.432 0-.75.036-.954.108a.595.595 0 00-.396.396c-.072.204-.108.534-.108.99v4.248h1.188c.42 0 .744-.096.972-.288.228-.204.378-.438.45-.702.084-.276.15-.618.198-1.026l.054-.36h.414a23.937 23.937 0 00-.054 1.692v.864c0 .612.036 1.464.108 2.556h-.414a74.267 74.267 0 01-.108-.864c-.06-.504-.228-.882-.504-1.134-.264-.252-.636-.378-1.116-.378h-1.188v4.32c0 .456.036.786.108.99a.648.648 0 00.396.414c.204.06.522.09.954.09h1.314c.744 0 1.308-.096 1.692-.288.396-.204.684-.522.864-.954.18-.444.312-1.092.396-1.944h.414c-.036.324-.054.756-.054 1.296zM46.445.616c-.433.024-.75.072-.955.144a.648.648 0 00-.396.414c-.072.204-.108.534-.108.99v8.928c0 .456.036.786.108.99a.648.648 0 00.396.414c.204.072.522.12.954.144V13c-.504-.036-1.272-.054-2.304-.054l-1.332.018c-.768.024-1.392.036-1.872.036-.468 0-1.05-.012-1.746-.036l-1.026-.018-1.062.018A52.89 52.89 0 0135.32 13c-.516 0-1.146-.012-1.89-.036l-1.296-.018c-1.032 0-1.8.018-2.304.054v-.36c.432-.024.744-.072.936-.144a.647.647 0 00.414-.414c.072-.204.108-.534.108-.99V2.164c0-.456-.036-.786-.108-.99a.647.647 0 00-.414-.414c-.192-.072-.504-.12-.936-.144v-.36c.504.036 1.272.054 2.304.054.876 0 1.578-.018 2.106-.054v.36c-.384.024-.66.072-.828.144-.168.072-.288.21-.36.414-.06.204-.09.534-.09.99v8.928c0 .456.036.792.108 1.008.072.204.21.348.414.432.204.072.516.108.936.108h1.422c.42 0 .732-.036.936-.108a.703.703 0 00.414-.432c.072-.216.108-.552.108-1.008V2.164c0-.456-.03-.786-.09-.99a.6.6 0 00-.36-.414c-.168-.072-.444-.12-.828-.144v-.36c.528.036 1.23.054 2.106.054.948 0 1.656-.018 2.124-.054v.36c-.384.024-.666.072-.846.144-.168.072-.282.21-.342.414-.06.204-.09.534-.09.99v8.928c0 .456.036.792.108 1.008.072.204.21.348.414.432.204.072.516.108.936.108h1.422c.42 0 .732-.036.936-.108a.703.703 0 00.414-.432c.072-.216.108-.552.108-1.008V2.164c0-.456-.03-.786-.09-.99a.6.6 0 00-.36-.414c-.168-.072-.444-.12-.828-.144v-.36c.528.036 1.23.054 2.106.054 1.032 0 1.8-.018 2.304-.054v.36zM59.076 12.1c-.264.396-.534.69-.81.882-.276.18-.648.27-1.116.27-.48 0-.882-.138-1.206-.414-.312-.276-.552-.786-.72-1.53l-.504-2.232c-.144-.612-.288-1.08-.432-1.404a1.57 1.57 0 00-.684-.792c-.312-.204-.756-.306-1.332-.306h-1.188v4.518c0 .456.036.786.108.99a.648.648 0 00.396.414c.204.072.522.12.954.144V13a37.257 37.257 0 00-2.286-.054c-1.032 0-1.8.018-2.304.054v-.36c.432-.024.744-.072.936-.144a.647.647 0 00.414-.414c.072-.204.108-.534.108-.99V2.164c0-.456-.036-.786-.108-.99A.647.647 0 0048.89.76c-.192-.072-.504-.12-.936-.144v-.36c.504.036 1.272.054 2.304.054.96 0 1.722-.018 2.286-.054v.36c-.432.024-.75.072-.954.144a.648.648 0 00-.396.414c-.072.204-.108.534-.108.99v4.068c.888-.012 1.596-.36 2.124-1.044l1.728-2.196c.612-.756.918-1.332.918-1.728 0-.42-.372-.636-1.116-.648v-.36a39.38 39.38 0 002.07.054c.66 0 1.17-.018 1.53-.054v.36c-.816.12-1.524.558-2.124 1.314l-3.384 4.32c.96.036 1.74.246 2.34.63.612.372 1.026 1.026 1.242 1.962l.522 2.268c.132.576.252.966.36 1.17.12.204.294.306.522.306a.77.77 0 00.504-.162c.144-.108.306-.282.486-.522l.27.198zM65.635.004c1.14 0 2.136.258 2.988.774.864.516 1.53 1.266 1.998 2.25.48.972.72 2.136.72 3.492 0 1.32-.246 2.49-.738 3.51-.48 1.02-1.158 1.812-2.034 2.376-.864.564-1.848.846-2.952.846-1.14 0-2.142-.258-3.006-.774-.852-.516-1.518-1.26-1.998-2.232-.468-.984-.702-2.154-.702-3.51 0-1.32.24-2.49.72-3.51.492-1.02 1.17-1.812 2.034-2.376.876-.564 1.866-.846 2.97-.846zm-.072.324c-.768 0-1.446.27-2.034.81-.576.528-1.026 1.272-1.35 2.232-.312.96-.468 2.058-.468 3.294 0 1.248.174 2.346.522 3.294.36.948.84 1.68 1.44 2.196.6.516 1.272.774 2.016.774a2.89 2.89 0 002.016-.792c.588-.54 1.038-1.29 1.35-2.25.324-.96.486-2.058.486-3.294 0-1.248-.18-2.346-.54-3.294-.348-.948-.822-1.68-1.422-2.196-.6-.516-1.272-.774-2.016-.774zm18.012.288c-.432.024-.75.072-.954.144a.648.648 0 00-.396.414c-.072.204-.108.534-.108.99v8.928c0 .456.036.786.108.99a.648.648 0 00.396.414c.204.072.522.12.954.144V13c-.504-.036-1.272-.054-2.304-.054-1.128 0-2.01.018-2.646.054v-.36c.54-.024.93-.072 1.17-.144a.769.769 0 00.504-.414c.096-.204.144-.534.144-.99V2.164c0-.456-.036-.786-.108-.99a.649.649 0 00-.414-.432c-.204-.084-.516-.126-.936-.126h-.234c-.432 0-.744.042-.936.126a.652.652 0 00-.378.414c-.06.192-.108.528-.144 1.008-.036.372-.078.954-.126 1.746-.12 1.896-.276 3.474-.468 4.734-.18 1.248-.522 2.328-1.026 3.24-.504.912-1.218 1.368-2.142 1.368-.456 0-.846-.096-1.17-.288-.312-.204-.468-.516-.468-.936 0-.312.096-.558.288-.738.204-.192.462-.288.774-.288.264 0 .48.072.648.216a.7.7 0 01.27.576c0 .252-.06.462-.18.63-.12.156-.318.312-.594.468.108.012.252.018.432.018.852 0 1.506-.51 1.962-1.53.456-1.02.768-2.226.936-3.618.168-1.404.318-3.27.45-5.598.012-.096.018-.228.018-.396 0-.312-.042-.546-.126-.702-.084-.156-.228-.264-.432-.324s-.51-.102-.918-.126v-.36c.504.036 1.122.054 1.854.054.18 0 .45-.012.81-.036l.774-.018 1.206.018c.552.024 1.008.036 1.368.036.924 0 1.638-.018 2.142-.054v.36zm10.97 10.872c.289.744.703 1.128 1.243 1.152V13a27.034 27.034 0 00-1.926-.054c-1.032 0-1.8.018-2.304.054v-.36c.456-.024.78-.078.972-.162.204-.096.306-.264.306-.504 0-.204-.072-.486-.216-.846l-1.098-2.952h-4.356l-.738 1.908c-.24.648-.36 1.14-.36 1.476 0 .372.126.642.378.81.264.168.66.258 1.188.27V13a39.38 39.38 0 00-2.07-.054c-.54 0-.99.018-1.35.054v-.36c.6-.144 1.074-.666 1.422-1.566L89.866.166h.288l4.392 11.322zm-3.167-3.672l-2.016-5.382-2.052 5.382h4.068zm14.326-2.394c1.404 0 2.478.348 3.222 1.044.744.684 1.116 1.596 1.116 2.736 0 1.08-.366 1.986-1.098 2.718-.72.72-1.932 1.08-3.636 1.08l-.774-.018a31.41 31.41 0 00-1.494-.036c-.912 0-1.62.018-2.124.054v-.36c.432-.024.744-.072.936-.144a.647.647 0 00.414-.414c.072-.204.108-.534.108-.99V2.164c0-.456-.036-.786-.108-.99a.647.647 0 00-.414-.414c-.192-.072-.504-.12-.936-.144v-.36c1.176.036 2.916.054 5.22.054 1.512 0 2.586-.018 3.222-.054-.084.792-.126 1.5-.126 2.124 0 .468.018.84.054 1.116h-.414c-.084-.78-.192-1.356-.324-1.728-.132-.384-.354-.66-.666-.828-.312-.18-.786-.27-1.422-.27h-.954c-.432 0-.75.036-.954.108a.595.595 0 00-.396.396c-.072.204-.108.534-.108.99v3.294l1.656-.036zm-.45 7.218c1.14 0 1.92-.3 2.34-.9.432-.6.648-1.44.648-2.52 0-1.212-.24-2.088-.72-2.628-.48-.552-1.29-.828-2.43-.828-.42 0-.768.006-1.044.018v5.31c0 .444.03.774.09.99.06.216.168.366.324.45.168.072.432.108.792.108zm15.712-1.152c.288.744.702 1.128 1.242 1.152V13a27.034 27.034 0 00-1.926-.054c-1.032 0-1.8.018-2.304.054v-.36c.456-.024.78-.078.972-.162.204-.096.306-.264.306-.504 0-.204-.072-.486-.216-.846l-1.098-2.952h-4.356l-.738 1.908c-.24.648-.36 1.14-.36 1.476 0 .372.126.642.378.81.264.168.66.258 1.188.27V13a39.38 39.38 0 00-2.07-.054c-.54 0-.99.018-1.35.054v-.36c.6-.144 1.074-.666 1.422-1.566l4.23-10.908h.288l4.392 11.322zm-3.168-3.672l-2.016-5.382-2.052 5.382h4.068zm8.188.036v3.24c0 .456.048.786.144.99a.769.769 0 00.504.414c.24.072.63.12 1.17.144V13a49.126 49.126 0 00-2.646-.054c-1.032 0-1.8.018-2.304.054v-.36c.432-.024.744-.072.936-.144a.647.647 0 00.414-.414c.072-.204.108-.534.108-.99V2.164c0-.456-.036-.786-.108-.99a.647.647 0 00-.414-.414c-.192-.072-.504-.12-.936-.144v-.36c.504.036 1.236.054 2.196.054l1.944-.018c.228-.012.486-.018.774-.018 1.404 0 2.478.324 3.222.972.744.636 1.116 1.494 1.116 2.574 0 .66-.15 1.296-.45 1.908-.288.6-.786 1.104-1.494 1.512-.696.408-1.626.612-2.79.612h-1.386zm1.332-7.236c-.372 0-.654.042-.846.126a.717.717 0 00-.378.45c-.072.216-.108.54-.108.972v5.328h1.206c1.176 0 1.986-.312 2.43-.936.456-.636.684-1.482.684-2.538 0-1.164-.234-2.022-.702-2.574-.456-.552-1.218-.828-2.286-.828zm14.777 10.872c.288.744.702 1.128 1.242 1.152V13a27.034 27.034 0 00-1.926-.054c-1.032 0-1.8.018-2.304.054v-.36c.456-.024.78-.078.972-.162.204-.096.306-.264.306-.504 0-.204-.072-.486-.216-.846l-1.098-2.952h-4.356l-.738 1.908c-.24.648-.36 1.14-.36 1.476 0 .372.126.642.378.81.264.168.66.258 1.188.27V13a39.38 39.38 0 00-2.07-.054c-.54 0-.99.018-1.35.054v-.36c.6-.144 1.074-.666 1.422-1.566l4.23-10.908h.288l4.392 11.322zm-3.168-3.672l-2.016-5.382-2.052 5.382h4.068zm9.844-2.394c1.404 0 2.478.348 3.222 1.044.744.684 1.116 1.596 1.116 2.736 0 1.08-.366 1.986-1.098 2.718-.72.72-1.932 1.08-3.636 1.08l-.774-.018a31.41 31.41 0 00-1.494-.036c-.912 0-1.62.018-2.124.054v-.36c.432-.024.744-.072.936-.144a.647.647 0 00.414-.414c.072-.204.108-.534.108-.99V2.164c0-.456-.036-.786-.108-.99a.647.647 0 00-.414-.414c-.192-.072-.504-.12-.936-.144v-.36c1.176.036 2.916.054 5.22.054 1.512 0 2.586-.018 3.222-.054-.084.792-.126 1.5-.126 2.124 0 .468.018.84.054 1.116h-.414c-.084-.78-.192-1.356-.324-1.728-.132-.384-.354-.66-.666-.828-.312-.18-.786-.27-1.422-.27h-.954c-.432 0-.75.036-.954.108a.595.595 0 00-.396.396c-.072.204-.108.534-.108.99v3.294l1.656-.036zm-.45 7.218c1.14 0 1.92-.3 2.34-.9.432-.6.648-1.44.648-2.52 0-1.212-.24-2.088-.72-2.628-.48-.552-1.29-.828-2.43-.828-.42 0-.768.006-1.044.018v5.31c0 .444.03.774.09.99.06.216.168.366.324.45.168.072.432.108.792.108zm15.711-1.152c.288.744.702 1.128 1.242 1.152V13a27.034 27.034 0 00-1.926-.054c-1.032 0-1.8.018-2.304.054v-.36c.456-.024.78-.078.972-.162.204-.096.306-.264.306-.504 0-.204-.072-.486-.216-.846l-1.098-2.952h-4.356l-.738 1.908c-.24.648-.36 1.14-.36 1.476 0 .372.126.642.378.81.264.168.66.258 1.188.27V13a39.38 39.38 0 00-2.07-.054c-.54 0-.99.018-1.35.054v-.36c.6-.144 1.074-.666 1.422-1.566l4.23-10.908h.288l4.392 11.322zm-3.168-3.672l-2.016-5.382-2.052 5.382h4.068zm17.17-7.2c-.432.024-.75.072-.954.144a.648.648 0 00-.396.414c-.072.204-.108.534-.108.99v8.928c0 .456.036.786.108.99a.648.648 0 00.396.414c.204.072.522.12.954.144V13c-.504-.036-1.272-.054-2.304-.054-.972 0-1.734.018-2.286.054v-.36c.432-.024.744-.072.936-.144a.647.647 0 00.414-.414c.072-.204.108-.534.108-.99v-4.32h-5.85v4.32c0 .456.036.786.108.99a.648.648 0 00.396.414c.204.072.522.12.954.144V13a37.257 37.257 0 00-2.286-.054c-1.032 0-1.8.018-2.304.054v-.36c.432-.024.744-.072.936-.144a.647.647 0 00.414-.414c.072-.204.108-.534.108-.99V2.164c0-.456-.036-.786-.108-.99a.647.647 0 00-.414-.414c-.192-.072-.504-.12-.936-.144v-.36c.504.036 1.272.054 2.304.054.96 0 1.722-.018 2.286-.054v.36c-.432.024-.75.072-.954.144a.648.648 0 00-.396.414c-.072.204-.108.534-.108.99v4.248h5.85V2.164c0-.456-.036-.786-.108-.99a.647.647 0 00-.414-.414c-.192-.072-.504-.12-.936-.144v-.36c.552.036 1.314.054 2.286.054 1.032 0 1.8-.018 2.304-.054v.36zm7.29-.612c1.14 0 2.136.258 2.988.774.864.516 1.53 1.266 1.998 2.25.48.972.72 2.136.72 3.492 0 1.32-.246 2.49-.738 3.51-.48 1.02-1.158 1.812-2.034 2.376-.864.564-1.848.846-2.952.846-1.14 0-2.142-.258-3.006-.774-.852-.516-1.518-1.26-1.998-2.232-.468-.984-.702-2.154-.702-3.51 0-1.32.24-2.49.72-3.51.492-1.02 1.17-1.812 2.034-2.376.876-.564 1.866-.846 2.97-.846zm-.072.324c-.768 0-1.446.27-2.034.81-.576.528-1.026 1.272-1.35 2.232-.312.96-.468 2.058-.468 3.294 0 1.248.174 2.346.522 3.294.36.948.84 1.68 1.44 2.196.6.516 1.272.774 2.016.774a2.89 2.89 0 002.016-.792c.588-.54 1.038-1.29 1.35-2.25.324-.96.486-2.058.486-3.294 0-1.248-.18-2.346-.54-3.294-.348-.948-.822-1.68-1.422-2.196-.6-.516-1.272-.774-2.016-.774zm13.328 5.94c1.32.18 2.262.564 2.826 1.152.564.576.846 1.272.846 2.088 0 .684-.174 1.29-.522 1.818-.348.528-.846.942-1.494 1.242-.648.288-1.416.432-2.304.432-.324 0-.6-.006-.828-.018a72.621 72.621 0 00-2.268-.036c-.984 0-1.728.018-2.232.054v-.36c.432-.024.744-.072.936-.144a.647.647 0 00.414-.414c.072-.204.108-.534.108-.99V2.164c0-.456-.036-.786-.108-.99a.647.647 0 00-.414-.414c-.192-.072-.504-.12-.936-.144v-.36c.504.036 1.236.054 2.196.054l1.944-.018c.228-.012.486-.018.774-.018 1.224 0 2.16.258 2.808.774.66.516.99 1.2.99 2.052 0 .696-.222 1.32-.666 1.872-.432.552-1.122.972-2.07 1.26v.036zM197.068.616c-.372 0-.654.042-.846.126a.717.717 0 00-.378.45c-.072.216-.108.54-.108.972v4.068h1.206c.984 0 1.668-.264 2.052-.792.396-.54.594-1.254.594-2.142 0-.9-.198-1.572-.594-2.016-.396-.444-1.038-.666-1.926-.666zm.018 11.97c2.244 0 3.366-1.05 3.366-3.15 0-.948-.258-1.668-.774-2.16-.504-.492-1.314-.738-2.43-.738h-1.512v4.554c0 .432.036.75.108.954a.715.715 0 00.378.432c.192.072.48.108.864.108z" fill="#E4B0A2"/></svg>