<svg width="139" height="14" fill="none" xmlns="http://www.w3.org/2000/svg"><path d="M11.88 12.1c-.264.396-.534.69-.81.882-.276.18-.648.27-1.116.27-.48 0-.882-.138-1.206-.414-.312-.276-.552-.786-.72-1.53l-.504-2.232c-.144-.612-.288-1.08-.432-1.404a1.57 1.57 0 00-.684-.792c-.312-.204-.756-.306-1.332-.306H3.888v4.518c0 .456.036.786.108.99a.648.648 0 00.396.414c.204.072.522.12.954.144V13a37.257 37.257 0 00-2.286-.054c-1.032 0-1.8.018-2.304.054v-.36c.432-.024.744-.072.936-.144a.647.647 0 00.414-.414c.072-.204.108-.534.108-.99V2.164c0-.456-.036-.786-.108-.99A.647.647 0 001.692.76C1.5.688 1.188.64.756.616v-.36C1.26.292 2.028.31 3.06.31c.96 0 1.722-.018 2.286-.054v.36c-.432.024-.75.072-.954.144a.648.648 0 00-.396.414c-.072.204-.108.534-.108.99v4.068c.888-.012 1.596-.36 2.124-1.044L7.74 2.992c.612-.756.918-1.332.918-1.728 0-.42-.372-.636-1.116-.648v-.36a39.38 39.38 0 002.07.054c.66 0 1.17-.018 1.53-.054v.36c-.816.12-1.524.558-2.124 1.314L5.634 6.25c.96.036 1.74.246 2.34.63.612.372 1.026 1.026 1.242 1.962l.522 2.268c.132.576.252.966.36 1.17.12.204.294.306.522.306a.77.77 0 00.504-.162c.144-.108.306-.282.486-.522l.27.198zM23.827.616c-.432.024-.75.072-.954.144a.648.648 0 00-.396.414c-.072.204-.108.534-.108.99v8.928c0 .456.036.786.108.99a.648.648 0 00.396.414c.204.072.522.12.954.144V13c-.504-.036-1.272-.054-2.304-.054-1.128 0-2.01.018-2.646.054v-.36c.54-.024.93-.072 1.17-.144a.769.769 0 00.504-.414c.096-.204.144-.534.144-.99V2.164c0-.456-.036-.786-.108-.99a.649.649 0 00-.414-.432c-.204-.084-.516-.126-.936-.126h-.234c-.432 0-.744.042-.936.126a.652.652 0 00-.378.414c-.06.192-.108.528-.144 1.008-.036.372-.078.954-.126 1.746-.12 1.896-.276 3.474-.468 4.734-.18 1.248-.522 2.328-1.026 3.24-.504.912-1.218 1.368-2.142 1.368-.456 0-.846-.096-1.17-.288-.312-.204-.468-.516-.468-.936 0-.312.096-.558.288-.738.204-.192.462-.288.774-.288.264 0 .48.072.648.216a.7.7 0 01.27.576c0 .252-.06.462-.18.63-.12.156-.318.312-.594.468.108.012.252.018.432.018.852 0 1.506-.51 1.962-1.53.456-1.02.768-2.226.936-3.618.168-1.404.318-3.27.45-5.598.012-.096.018-.228.018-.396 0-.312-.042-.546-.126-.702-.084-.156-.228-.264-.432-.324s-.51-.102-.918-.126v-.36c.504.036 1.122.054 1.854.054.18 0 .45-.012.81-.036l.774-.018 1.206.018c.552.024 1.008.036 1.368.036.924 0 1.638-.018 2.142-.054v.36zm13.995 0c-.432.024-.75.072-.954.144a.648.648 0 00-.396.414c-.072.204-.108.534-.108.99v8.928c0 .456.036.786.108.99a.648.648 0 00.396.414c.204.072.522.12.954.144V13c-.504-.036-1.272-.054-2.304-.054-.96 0-1.722.018-2.286.054v-.36c.432-.024.744-.072.936-.144a.647.647 0 00.414-.414c.072-.204.108-.534.108-.99V2.578l-6.21 8.802c.012.348.06.612.144.792a.66.66 0 00.414.342c.192.06.492.102.9.126V13a37.257 37.257 0 00-2.286-.054c-1.032 0-1.8.018-2.304.054v-.36c.432-.024.744-.072.936-.144a.647.647 0 00.414-.414c.072-.204.108-.534.108-.99V2.164c0-.456-.036-.786-.108-.99a.647.647 0 00-.414-.414c-.192-.072-.504-.12-.936-.144v-.36c.504.036 1.272.054 2.304.054.96 0 1.722-.018 2.286-.054v.36c-.432.024-.75.072-.954.144a.648.648 0 00-.396.414c-.072.204-.108.534-.108.99v8.514l6.21-8.802c-.012-.348-.06-.606-.144-.774a.652.652 0 00-.414-.36c-.192-.06-.492-.102-.9-.126v-.36c.564.036 1.326.054 2.286.054 1.032 0 1.8-.018 2.304-.054v.36zm13.632 0c-.432.024-.75.072-.954.144a.648.648 0 00-.396.414c-.072.204-.108.534-.108.99v8.928c0 .456.036.786.108.99a.648.648 0 00.396.414c.204.072.522.12.954.144V13c-.504-.036-1.272-.054-2.304-.054-.972 0-1.734.018-2.286.054v-.36c.432-.024.744-.072.936-.144a.647.647 0 00.414-.414c.072-.204.108-.534.108-.99v-4.32h-5.85v4.32c0 .456.036.786.108.99a.648.648 0 00.396.414c.204.072.522.12.954.144V13a37.257 37.257 0 00-2.286-.054c-1.032 0-1.8.018-2.304.054v-.36c.432-.024.744-.072.936-.144a.647.647 0 00.414-.414c.072-.204.108-.534.108-.99V2.164c0-.456-.036-.786-.108-.99a.647.647 0 00-.414-.414c-.192-.072-.504-.12-.936-.144v-.36c.504.036 1.272.054 2.304.054.96 0 1.722-.018 2.286-.054v.36c-.432.024-.75.072-.954.144a.648.648 0 00-.396.414c-.072.204-.108.534-.108.99v4.248h5.85V2.164c0-.456-.036-.786-.108-.99A.647.647 0 0047.8.76c-.192-.072-.504-.12-.936-.144v-.36c.552.036 1.314.054 2.286.054 1.032 0 1.8-.018 2.304-.054v.36zm13.983 0c-.432.024-.75.072-.954.144a.648.648 0 00-.396.414c-.072.204-.108.534-.108.99v8.928c0 .456.036.786.108.99a.648.648 0 00.396.414c.204.072.522.12.954.144V13c-.504-.036-1.272-.054-2.304-.054-.96 0-1.722.018-2.286.054v-.36c.432-.024.744-.072.936-.144a.647.647 0 00.414-.414c.072-.204.108-.534.108-.99V2.578l-6.21 8.802c.012.348.06.612.144.792a.66.66 0 00.414.342c.192.06.492.102.9.126V13a37.257 37.257 0 00-2.286-.054c-1.032 0-1.8.018-2.304.054v-.36c.432-.024.744-.072.936-.144a.647.647 0 00.414-.414c.072-.204.108-.534.108-.99V2.164c0-.456-.036-.786-.108-.99a.647.647 0 00-.414-.414c-.192-.072-.504-.12-.936-.144v-.36c.504.036 1.272.054 2.304.054.96 0 1.722-.018 2.286-.054v.36c-.432.024-.75.072-.954.144a.648.648 0 00-.396.414c-.072.204-.108.534-.108.99v8.514l6.21-8.802c-.012-.348-.06-.606-.144-.774a.652.652 0 00-.414-.36c-.192-.06-.492-.102-.9-.126v-.36c.564.036 1.326.054 2.286.054 1.032 0 1.8-.018 2.304-.054v.36zM78.079 12.1c-.264.396-.534.69-.81.882-.276.18-.648.27-1.116.27-.48 0-.882-.138-1.206-.414-.312-.276-.552-.786-.72-1.53l-.504-2.232c-.144-.612-.288-1.08-.432-1.404a1.57 1.57 0 00-.684-.792c-.312-.204-.756-.306-1.332-.306h-1.188v4.518c0 .456.036.786.108.99a.648.648 0 00.396.414c.204.072.522.12.954.144V13a37.257 37.257 0 00-2.286-.054c-1.032 0-1.8.018-2.304.054v-.36c.432-.024.744-.072.936-.144a.647.647 0 00.414-.414c.072-.204.108-.534.108-.99V2.164c0-.456-.036-.786-.108-.99a.647.647 0 00-.414-.414c-.192-.072-.504-.12-.936-.144v-.36c.504.036 1.272.054 2.304.054.96 0 1.722-.018 2.286-.054v.36c-.432.024-.75.072-.954.144a.648.648 0 00-.396.414c-.072.204-.108.534-.108.99v4.068c.888-.012 1.596-.36 2.124-1.044l1.728-2.196c.612-.756.918-1.332.918-1.728 0-.42-.372-.636-1.116-.648v-.36a39.38 39.38 0 002.07.054c.66 0 1.17-.018 1.53-.054v.36c-.816.12-1.524.558-2.124 1.314l-3.384 4.32c.96.036 1.74.246 2.34.63.612.372 1.026 1.026 1.242 1.962l.522 2.268c.132.576.252.966.36 1.17.12.204.294.306.522.306a.77.77 0 00.504-.162c.144-.108.306-.282.486-.522l.27.198zm10.525-.612c.288.744.702 1.128 1.242 1.152V13a27.034 27.034 0 00-1.926-.054c-1.032 0-1.8.018-2.304.054v-.36c.456-.024.78-.078.972-.162.204-.096.306-.264.306-.504 0-.204-.072-.486-.216-.846L85.58 8.176h-4.356l-.738 1.908c-.24.648-.36 1.14-.36 1.476 0 .372.126.642.378.81.264.168.66.258 1.188.27V13a39.38 39.38 0 00-2.07-.054c-.54 0-.99.018-1.35.054v-.36c.6-.144 1.074-.666 1.422-1.566L83.924.166h.288l4.392 11.322zm-3.168-3.672L83.42 2.434l-2.052 5.382h4.068zm18.755 2.88c0 .684.042 1.452.126 2.304-.816-.036-2.19-.054-4.122-.054-2.304 0-4.044.018-5.22.054v-.36c.432-.024.744-.072.936-.144a.647.647 0 00.414-.414c.072-.204.108-.534.108-.99V2.164c0-.456-.036-.786-.108-.99A.647.647 0 0095.91.76c-.192-.072-.504-.12-.936-.144v-.36c1.176.036 2.916.054 5.22.054 1.764 0 3.018-.018 3.762-.054-.084.792-.126 1.5-.126 2.124 0 .468.018.84.054 1.116h-.414c-.084-.78-.192-1.356-.324-1.728-.132-.384-.354-.66-.666-.828-.312-.18-.786-.27-1.422-.27h-1.494c-.432 0-.75.036-.954.108a.595.595 0 00-.396.396c-.072.204-.108.534-.108.99v4.248h1.188c.42 0 .744-.096.972-.288.228-.204.378-.438.45-.702.084-.276.15-.618.198-1.026l.054-.36h.414a23.937 23.937 0 00-.054 1.692v.864c0 .612.036 1.464.108 2.556h-.414a74.267 74.267 0 01-.108-.864c-.06-.504-.228-.882-.504-1.134-.264-.252-.636-.378-1.116-.378h-1.188v4.32c0 .456.036.786.108.99a.648.648 0 00.396.414c.204.06.522.09.954.09h1.314c.744 0 1.308-.096 1.692-.288.396-.204.684-.522.864-.954.18-.444.312-1.092.396-1.944h.414c-.036.324-.054.756-.054 1.296zM115.304.31c.54 0 .99-.018 1.35-.054v.36c-.6.144-1.074.666-1.422 1.566l-4.23 10.908h-.288l-4.392-11.322c-.288-.744-.702-1.128-1.243-1.152v-.36c.481.036 1.123.054 1.927.054 1.032 0 1.8-.018 2.304-.054v.36c-.456.024-.786.084-.99.18-.192.084-.288.246-.288.486 0 .204.072.486.216.846l3.258 8.658 2.933-7.614c.241-.648.361-1.14.361-1.476 0-.372-.132-.642-.396-.81-.252-.168-.642-.258-1.17-.27v-.36a39.38 39.38 0 002.07.054zm7.601-.306c1.14 0 2.136.258 2.988.774.864.516 1.53 1.266 1.998 2.25.48.972.72 2.136.72 3.492 0 1.32-.246 2.49-.738 3.51-.48 1.02-1.158 1.812-2.034 2.376-.864.564-1.848.846-2.952.846-1.14 0-2.142-.258-3.006-.774-.852-.516-1.518-1.26-1.998-2.232-.468-.984-.702-2.154-.702-3.51 0-1.32.24-2.49.72-3.51.492-1.02 1.17-1.812 2.034-2.376.876-.564 1.866-.846 2.97-.846zm-.072.324c-.768 0-1.446.27-2.034.81-.576.528-1.026 1.272-1.35 2.232-.312.96-.468 2.058-.468 3.294 0 1.248.174 2.346.522 3.294.36.948.84 1.68 1.44 2.196.6.516 1.272.774 2.016.774a2.89 2.89 0 002.016-.792c.588-.54 1.038-1.29 1.35-2.25.324-.96.486-2.058.486-3.294 0-1.248-.18-2.346-.54-3.294-.348-.948-.822-1.68-1.422-2.196-.6-.516-1.272-.774-2.016-.774zm11.343-.27c.528 0 .942.06 1.242.18.312.108.63.27.954.486.264.168.468.252.612.252.108 0 .192-.06.252-.18.06-.132.108-.336.144-.612h.414c-.06.696-.09 1.92-.09 3.672h-.414c-.072-.972-.354-1.788-.846-2.448C135.964.736 135.262.4 134.338.4c-.648 0-1.176.198-1.584.594-.408.384-.612.882-.612 1.494 0 .456.102.852.306 1.188.216.336.486.624.81.864.324.24.786.546 1.386.918l.522.324c.756.468 1.35.882 1.782 1.242.444.348.798.75 1.062 1.206.264.456.396.99.396 1.602 0 1.092-.36 1.938-1.08 2.538-.72.588-1.632.882-2.736.882-.576 0-1.05-.06-1.422-.18a5.139 5.139 0 01-1.044-.486c-.264-.168-.468-.252-.612-.252-.108 0-.192.066-.252.198-.06.12-.108.318-.144.594h-.414c.048-.66.072-2.1.072-4.32h.414c.084 1.212.384 2.196.9 2.952.516.756 1.308 1.134 2.376 1.134.648 0 1.2-.198 1.656-.594.456-.408.684-1.008.684-1.8 0-.672-.228-1.242-.684-1.71-.444-.468-1.152-.996-2.124-1.584a21.402 21.402 0 01-1.728-1.152 4.251 4.251 0 01-1.062-1.206c-.276-.48-.414-1.038-.414-1.674 0-1.008.324-1.776.972-2.304.648-.54 1.452-.81 2.412-.81z" fill="#E4B0A2"/></svg>