<svg width="70" height="14" fill="none" xmlns="http://www.w3.org/2000/svg"><path d="M9.738.256c-.084.852-.126 1.62-.126 2.304 0 .6.018 1.092.054 1.476h-.414c-.096-.924-.216-1.608-.36-2.052-.144-.456-.396-.786-.756-.99C7.776.778 7.224.67 6.48.67H5.346c-.432 0-.75.036-.954.108a.595.595 0 00-.396.396c-.072.204-.108.534-.108.99v4.428h1.314c.42 0 .744-.096.972-.288.228-.204.378-.438.45-.702.084-.276.15-.618.198-1.026l.054-.36h.414a23.937 23.937 0 00-.054 1.692v.864c0 .612.036 1.464.108 2.556H6.93a74.267 74.267 0 01-.108-.864c-.06-.504-.228-.882-.504-1.134-.264-.252-.636-.378-1.116-.378H3.888v4.14c0 .456.048.786.144.99a.769.769 0 00.504.414c.24.072.63.12 1.17.144V13a49.126 49.126 0 00-2.646-.054c-1.032 0-1.8.018-2.304.054v-.36c.432-.024.744-.072.936-.144a.647.647 0 00.414-.414c.072-.204.108-.534.108-.99V2.164c0-.456-.036-.786-.108-.99A.647.647 0 001.692.76C1.5.688 1.188.64.756.616v-.36C1.932.292 3.672.31 5.976.31 7.74.31 8.994.292 9.738.256zm7.296.36c-.432.024-.75.072-.954.144a.648.648 0 00-.396.414c-.072.204-.108.534-.108.99v8.928c0 .456.036.786.108.99a.648.648 0 00.396.414c.204.06.522.09.954.09h1.314c.744 0 1.308-.102 1.692-.306.396-.216.684-.558.864-1.026.18-.468.312-1.146.396-2.034h.414a16.02 16.02 0 00-.054 1.476c0 .684.042 1.452.126 2.304-.816-.036-2.19-.054-4.122-.054-2.304 0-4.044.018-5.22.054v-.36c.432-.024.744-.072.936-.144a.647.647 0 00.414-.414c.072-.204.108-.534.108-.99V2.164c0-.456-.036-.786-.108-.99A.647.647 0 0013.38.76c-.192-.072-.504-.12-.936-.144v-.36c.504.036 1.272.054 2.304.054.96 0 1.722-.018 2.286-.054v.36zm16.882 10.872c.288.744.702 1.128 1.242 1.152V13a27.034 27.034 0 00-1.926-.054c-1.032 0-1.8.018-2.304.054v-.36c.456-.024.78-.078.972-.162.204-.096.306-.264.306-.504 0-.204-.072-.486-.216-.846l-1.098-2.952h-4.356l-.738 1.908c-.24.648-.36 1.14-.36 1.476 0 .372.126.642.378.81.264.168.66.258 1.188.27V13a39.38 39.38 0 00-2.07-.054c-.54 0-.99.018-1.35.054v-.36c.6-.144 1.074-.666 1.422-1.566L29.236.166h.288l4.392 11.322zm-3.168-3.672l-2.016-5.382-2.052 5.382h4.068zM48.016 12.1c-.276.408-.552.702-.828.882-.276.18-.642.27-1.098.27-.492 0-.9-.144-1.224-.432-.312-.288-.546-.792-.702-1.512l-.396-1.8c-.144-.624-.282-1.104-.414-1.44a1.79 1.79 0 00-.558-.81c-.252-.204-.606-.306-1.062-.306h-1.71v4.14c0 .456.036.786.108.99a.648.648 0 00.396.414c.204.072.522.12.954.144V13a37.257 37.257 0 00-2.286-.054c-1.032 0-1.8.018-2.304.054v-.36c.432-.024.744-.072.936-.144a.647.647 0 00.414-.414c.072-.204.108-.534.108-.99V2.164c0-.456-.036-.786-.108-.99a.647.647 0 00-.414-.414c-.192-.072-.504-.12-.936-.144v-.36c.504.036 1.236.054 2.196.054l1.944-.018c.228-.012.486-.018.774-.018 1.392 0 2.46.294 3.204.882.756.576 1.134 1.326 1.134 2.25 0 .468-.114.942-.342 1.422-.216.468-.588.894-1.116 1.278-.516.372-1.194.624-2.034.756l.216.036c.792.132 1.368.372 1.728.72.36.348.624.9.792 1.656l.45 1.836c.12.552.246.936.378 1.152.132.216.312.324.54.324a.77.77 0 00.504-.162c.144-.108.306-.282.486-.522l.27.198zM41.356.616c-.372 0-.654.042-.846.126a.717.717 0 00-.378.45c-.072.216-.108.54-.108.972v4.428h1.206c1.188 0 2.004-.264 2.448-.792.444-.528.666-1.26.666-2.196 0-.984-.234-1.728-.702-2.232-.468-.504-1.23-.756-2.286-.756zm13.238 0c-.432.024-.75.072-.954.144a.648.648 0 00-.396.414c-.072.204-.108.534-.108.99v8.928c0 .456.036.786.108.99a.648.648 0 00.396.414c.204.072.522.12.954.144V13a37.257 37.257 0 00-2.286-.054c-1.032 0-1.8.018-2.304.054v-.36c.432-.024.744-.072.936-.144a.647.647 0 00.414-.414c.072-.204.108-.534.108-.99V2.164c0-.456-.036-.786-.108-.99A.647.647 0 0050.94.76c-.192-.072-.504-.12-.936-.144v-.36c.504.036 1.272.054 2.304.054.96 0 1.722-.018 2.286-.054v.36zm8.731-.612c1.14 0 2.136.258 2.988.774.864.516 1.53 1.266 1.998 2.25.48.972.72 2.136.72 3.492 0 1.32-.246 2.49-.738 3.51-.48 1.02-1.158 1.812-2.034 2.376-.864.564-1.848.846-2.952.846-1.14 0-2.142-.258-3.006-.774-.852-.516-1.518-1.26-1.998-2.232-.468-.984-.702-2.154-.702-3.51 0-1.32.24-2.49.72-3.51.492-1.02 1.17-1.812 2.034-2.376.876-.564 1.866-.846 2.97-.846zm-.072.324c-.768 0-1.446.27-2.034.81-.576.528-1.026 1.272-1.35 2.232-.312.96-.468 2.058-.468 3.294 0 1.248.174 2.346.522 3.294.36.948.84 1.68 1.44 2.196.6.516 1.272.774 2.016.774a2.89 2.89 0 002.016-.792c.588-.54 1.038-1.29 1.35-2.25.324-.96.486-2.058.486-3.294 0-1.248-.18-2.346-.54-3.294-.348-.948-.822-1.68-1.422-2.196-.6-.516-1.272-.774-2.016-.774z" fill="#E4B0A2"/></svg>