<svg width="85" height="14" fill="none" xmlns="http://www.w3.org/2000/svg"><path d="M9.738.256c-.084.852-.126 1.62-.126 2.304 0 .6.018 1.092.054 1.476h-.414c-.096-.924-.216-1.608-.36-2.052-.144-.456-.396-.786-.756-.99C7.776.778 7.224.67 6.48.67H5.346c-.432 0-.75.036-.954.108a.595.595 0 00-.396.396c-.072.204-.108.534-.108.99v4.428h1.314c.42 0 .744-.096.972-.288.228-.204.378-.438.45-.702.084-.276.15-.618.198-1.026l.054-.36h.414a23.937 23.937 0 00-.054 1.692v.864c0 .612.036 1.464.108 2.556H6.93a74.267 74.267 0 01-.108-.864c-.06-.504-.228-.882-.504-1.134-.264-.252-.636-.378-1.116-.378H3.888v4.14c0 .456.048.786.144.99a.769.769 0 00.504.414c.24.072.63.12 1.17.144V13a49.126 49.126 0 00-2.646-.054c-1.032 0-1.8.018-2.304.054v-.36c.432-.024.744-.072.936-.144a.647.647 0 00.414-.414c.072-.204.108-.534.108-.99V2.164c0-.456-.036-.786-.108-.99A.647.647 0 001.692.76C1.5.688 1.188.64.756.616v-.36C1.932.292 3.672.31 5.976.31 7.74.31 8.994.292 9.738.256zM22.128 12.1c-.276.408-.552.702-.828.882-.276.18-.642.27-1.098.27-.492 0-.9-.144-1.224-.432-.312-.288-.546-.792-.702-1.512l-.396-1.8c-.144-.624-.282-1.104-.414-1.44a1.79 1.79 0 00-.558-.81c-.252-.204-.606-.306-1.062-.306h-1.71v4.14c0 .456.036.786.108.99a.648.648 0 00.396.414c.204.072.522.12.954.144V13a37.257 37.257 0 00-2.286-.054c-1.032 0-1.8.018-2.304.054v-.36c.432-.024.744-.072.936-.144a.647.647 0 00.414-.414c.072-.204.108-.534.108-.99V2.164c0-.456-.036-.786-.108-.99A.647.647 0 0011.94.76c-.192-.072-.504-.12-.936-.144v-.36C11.508.292 12.24.31 13.2.31l1.944-.018c.228-.012.486-.018.774-.018 1.392 0 2.46.294 3.204.882.756.576 1.134 1.326 1.134 2.25 0 .468-.114.942-.342 1.422-.216.468-.588.894-1.116 1.278-.516.372-1.194.624-2.034.756l.216.036c.792.132 1.368.372 1.728.72.36.348.624.9.792 1.656l.45 1.836c.12.552.246.936.378 1.152.132.216.312.324.54.324a.77.77 0 00.504-.162c.144-.108.306-.282.486-.522l.27.198zM15.468.616c-.372 0-.654.042-.846.126a.717.717 0 00-.378.45c-.072.216-.108.54-.108.972v4.428h1.206c1.188 0 2.004-.264 2.448-.792.444-.528.666-1.26.666-2.196 0-.984-.234-1.728-.702-2.232-.468-.504-1.23-.756-2.286-.756zm16.424 10.08c0 .684.042 1.452.126 2.304-.816-.036-2.19-.054-4.122-.054-2.304 0-4.044.018-5.22.054v-.36c.432-.024.744-.072.936-.144a.647.647 0 00.414-.414c.072-.204.108-.534.108-.99V2.164c0-.456-.036-.786-.108-.99a.647.647 0 00-.414-.414c-.192-.072-.504-.12-.936-.144v-.36c1.176.036 2.916.054 5.22.054 1.764 0 3.018-.018 3.762-.054-.084.792-.126 1.5-.126 2.124 0 .468.018.84.054 1.116h-.414c-.084-.78-.192-1.356-.324-1.728-.132-.384-.354-.66-.666-.828-.312-.18-.786-.27-1.422-.27h-1.494c-.432 0-.75.036-.954.108a.595.595 0 00-.396.396c-.072.204-.108.534-.108.99v4.248h1.188c.42 0 .744-.096.972-.288.228-.204.378-.438.45-.702.084-.276.15-.618.198-1.026l.054-.36h.414a23.937 23.937 0 00-.054 1.692v.864c0 .612.036 1.464.108 2.556h-.414a74.267 74.267 0 01-.108-.864c-.06-.504-.228-.882-.504-1.134-.264-.252-.636-.378-1.116-.378h-1.188v4.32c0 .456.036.786.108.99a.648.648 0 00.396.414c.204.06.522.09.954.09h1.314c.744 0 1.308-.096 1.692-.288.396-.204.684-.522.864-.954.18-.444.312-1.092.396-1.944h.414c-.036.324-.054.756-.054 1.296zm10.969 0c0 .684.042 1.452.126 2.304-.816-.036-2.19-.054-4.122-.054-2.304 0-4.044.018-5.22.054v-.36c.432-.024.744-.072.936-.144a.647.647 0 00.414-.414c.072-.204.108-.534.108-.99V2.164c0-.456-.036-.786-.108-.99A.647.647 0 0034.58.76c-.192-.072-.504-.12-.936-.144v-.36c1.176.036 2.916.054 5.22.054 1.764 0 3.018-.018 3.762-.054-.084.792-.126 1.5-.126 2.124 0 .468.018.84.054 1.116h-.414c-.084-.78-.192-1.356-.324-1.728-.132-.384-.354-.66-.666-.828-.312-.18-.786-.27-1.422-.27h-1.494c-.432 0-.75.036-.954.108a.595.595 0 00-.396.396c-.072.204-.108.534-.108.99v4.248h1.188c.42 0 .744-.096.972-.288.228-.204.378-.438.45-.702.084-.276.15-.618.198-1.026l.054-.36h.414a23.937 23.937 0 00-.054 1.692v.864c0 .612.036 1.464.108 2.556h-.414a74.267 74.267 0 01-.108-.864c-.06-.504-.228-.882-.504-1.134-.264-.252-.636-.378-1.116-.378h-1.188v4.32c0 .456.036.786.108.99a.648.648 0 00.396.414c.204.06.522.09.954.09h1.314c.744 0 1.308-.096 1.692-.288.396-.204.684-.522.864-.954.18-.444.312-1.092.396-1.944h.414c-.036.324-.054.756-.054 1.296zM49.527.256c2.124 0 3.714.534 4.77 1.602 1.056 1.056 1.584 2.598 1.584 4.626 0 1.308-.258 2.454-.774 3.438a5.438 5.438 0 01-2.25 2.286c-.972.528-2.136.792-3.492.792l-1.044-.018a46.159 46.159 0 00-1.476-.036c-.984 0-1.728.018-2.232.054v-.36c.432-.024.744-.072.936-.144a.647.647 0 00.414-.414c.072-.204.108-.534.108-.99V2.164c0-.456-.036-.786-.108-.99A.647.647 0 0045.55.76c-.192-.072-.504-.12-.936-.144v-.36c.42.036 1.002.054 1.746.054l1.53-.018a69.264 69.264 0 011.638-.036zm-.45.324c-.372 0-.654.042-.846.126a.717.717 0 00-.378.45c-.072.216-.108.54-.108.972v9c0 .432.036.756.108.972a.717.717 0 00.378.45c.192.084.48.126.864.126 1.272 0 2.274-.228 3.006-.684.732-.468 1.242-1.146 1.53-2.034.3-.888.45-2.022.45-3.402 0-1.38-.162-2.502-.486-3.366-.324-.876-.852-1.53-1.584-1.962-.72-.432-1.698-.648-2.934-.648zM63.543.004c1.14 0 2.136.258 2.988.774.864.516 1.53 1.266 1.998 2.25.48.972.72 2.136.72 3.492 0 1.32-.246 2.49-.738 3.51-.48 1.02-1.158 1.812-2.034 2.376-.864.564-1.848.846-2.952.846-1.14 0-2.142-.258-3.006-.774-.852-.516-1.518-1.26-1.998-2.232-.468-.984-.702-2.154-.702-3.51 0-1.32.24-2.49.72-3.51.492-1.02 1.17-1.812 2.034-2.376.876-.564 1.866-.846 2.97-.846zm-.072.324c-.768 0-1.446.27-2.034.81-.576.528-1.026 1.272-1.35 2.232-.312.96-.468 2.058-.468 3.294 0 1.248.174 2.346.522 3.294.36.948.84 1.68 1.44 2.196.6.516 1.272.774 2.016.774a2.89 2.89 0 002.016-.792c.588-.54 1.038-1.29 1.35-2.25.324-.96.486-2.058.486-3.294 0-1.248-.18-2.346-.54-3.294-.348-.948-.822-1.68-1.422-2.196-.6-.516-1.272-.774-2.016-.774zm21.517.288c-.432.024-.75.072-.954.144a.648.648 0 00-.396.414c-.072.204-.108.534-.108.99v8.928c0 .456.036.786.108.99a.648.648 0 00.396.414c.204.072.522.12.954.144V13a37.257 37.257 0 00-2.286-.054c-1.032 0-1.8.018-2.304.054v-.36c.432-.024.744-.072.936-.144a.647.647 0 00.414-.414c.072-.204.108-.534.108-.99V1.444L77.518 13.09h-.288L72.694 1.408v9.504c0 .468.036.816.108 1.044.084.228.24.396.468.504.228.096.582.156 1.062.18V13a23.64 23.64 0 00-1.836-.054c-.72 0-1.278.018-1.674.054v-.36c.42-.024.732-.084.936-.18a.83.83 0 00.414-.504c.072-.24.108-.588.108-1.044V2.164c0-.456-.036-.786-.108-.99a.647.647 0 00-.414-.414c-.192-.072-.504-.12-.936-.144v-.36c.396.036.954.054 1.674.054.624 0 1.134-.018 1.53-.054l3.96 10.422L81.856.31h.846c.972 0 1.734-.018 2.286-.054v.36z" fill="#E4B0A2"/></svg>