<svg width="89" height="14" fill="none" xmlns="http://www.w3.org/2000/svg"><path d="M13.11.616c-.433.024-.75.072-.955.144a.648.648 0 00-.396.414c-.072.204-.108.534-.108.99v8.928c0 .456.036.786.108.99a.648.648 0 00.396.414c.204.072.522.12.954.144V13c-.504-.036-1.272-.054-2.304-.054-.972 0-1.734.018-2.286.054v-.36c.432-.024.744-.072.936-.144a.647.647 0 00.414-.414c.072-.204.108-.534.108-.99v-4.32h-5.85v4.32c0 .456.036.786.108.99a.648.648 0 00.396.414c.204.072.522.12.954.144V13a37.257 37.257 0 00-2.286-.054c-1.032 0-1.8.018-2.304.054v-.36c.432-.024.744-.072.936-.144a.647.647 0 00.414-.414c.072-.204.108-.534.108-.99V2.164c0-.456-.036-.786-.108-.99A.647.647 0 001.931.76C1.74.688 1.427.64.995.616v-.36C1.5.292 2.267.31 3.3.31c.96 0 1.722-.018 2.286-.054v.36c-.432.024-.75.072-.954.144a.648.648 0 00-.396.414c-.072.204-.108.534-.108.99v4.248h5.85V2.164c0-.456-.036-.786-.108-.99A.647.647 0 009.455.76C9.263.688 8.951.64 8.52.616v-.36c.552.036 1.314.054 2.286.054 1.032 0 1.8-.018 2.304-.054v.36zm7.65-.612c1.14 0 2.136.258 2.988.774.864.516 1.53 1.266 1.998 2.25.48.972.72 2.136.72 3.492 0 1.32-.246 2.49-.738 3.51-.48 1.02-1.158 1.812-2.034 2.376-.864.564-1.848.846-2.952.846-1.14 0-2.142-.258-3.006-.774-.852-.516-1.518-1.26-1.998-2.232-.468-.984-.702-2.154-.702-3.51 0-1.32.24-2.49.72-3.51.492-1.02 1.17-1.812 2.034-2.376.876-.564 1.866-.846 2.97-.846zm-.072.324c-.768 0-1.446.27-2.034.81-.576.528-1.026 1.272-1.35 2.232-.312.96-.468 2.058-.468 3.294 0 1.248.174 2.346.522 3.294.36.948.84 1.68 1.44 2.196.6.516 1.272.774 2.016.774a2.89 2.89 0 002.016-.792c.588-.54 1.038-1.29 1.35-2.25.324-.96.486-2.058.486-3.294 0-1.248-.18-2.346-.54-3.294-.348-.948-.822-1.68-1.422-2.196-.6-.516-1.272-.774-2.016-.774zM38.44.256c-.084.852-.126 1.62-.126 2.304 0 .6.018 1.092.054 1.476h-.414c-.096-.924-.216-1.608-.36-2.052-.144-.456-.396-.786-.756-.99-.36-.216-.912-.324-1.656-.324h-.972v10.242c0 .504.048.87.144 1.098a.813.813 0 00.504.468c.24.084.63.138 1.17.162V13a49.126 49.126 0 00-2.646-.054c-1.2 0-2.088.018-2.664.054v-.36c.54-.024.93-.078 1.17-.162a.813.813 0 00.504-.468c.096-.228.144-.594.144-1.098V.67h-.972c-.744 0-1.296.108-1.656.324-.36.204-.612.534-.756.99-.144.444-.264 1.128-.36 2.052h-.414c.036-.384.054-.876.054-1.476 0-.684-.042-1.452-.126-2.304.996.036 2.688.054 5.076.054 2.376 0 4.062-.018 5.058-.054zm11.54 0a23.41 23.41 0 00-.127 2.304c0 .6.018 1.092.054 1.476h-.414c-.096-.924-.216-1.608-.36-2.052-.144-.456-.396-.786-.756-.99-.36-.216-.912-.324-1.656-.324h-.972v10.242c0 .504.048.87.144 1.098a.813.813 0 00.504.468c.24.084.63.138 1.17.162V13a49.126 49.126 0 00-2.646-.054c-1.2 0-2.088.018-2.664.054v-.36c.54-.024.93-.078 1.17-.162a.813.813 0 00.504-.468c.096-.228.144-.594.144-1.098V.67h-.972c-.744 0-1.296.108-1.656.324-.36.204-.612.534-.756.99-.144.444-.264 1.128-.36 2.052h-.414c.036-.384.054-.876.054-1.476 0-.684-.042-1.452-.126-2.304.996.036 2.688.054 5.076.054 2.376 0 4.062-.018 5.058-.054zm7.56-.252c1.14 0 2.137.258 2.989.774.864.516 1.53 1.266 1.998 2.25.48.972.72 2.136.72 3.492 0 1.32-.246 2.49-.738 3.51-.48 1.02-1.158 1.812-2.034 2.376-.864.564-1.848.846-2.952.846-1.14 0-2.142-.258-3.006-.774-.852-.516-1.518-1.26-1.998-2.232-.468-.984-.702-2.154-.702-3.51 0-1.32.24-2.49.72-3.51.492-1.02 1.17-1.812 2.034-2.376.876-.564 1.866-.846 2.97-.846zm-.071.324c-.768 0-1.446.27-2.034.81-.576.528-1.026 1.272-1.35 2.232-.312.96-.468 2.058-.468 3.294 0 1.248.174 2.346.522 3.294.36.948.84 1.68 1.44 2.196.6.516 1.272.774 2.016.774a2.89 2.89 0 002.016-.792c.588-.54 1.038-1.29 1.35-2.25.324-.96.486-2.058.486-3.294 0-1.248-.18-2.346-.54-3.294-.348-.948-.822-1.68-1.422-2.196-.6-.516-1.272-.774-2.016-.774zm18.78.288c-.42.024-.732.09-.936.198a.769.769 0 00-.414.504c-.072.228-.108.57-.108 1.026v5.418c0 .864-.06 1.608-.18 2.232-.108.612-.294 1.14-.558 1.584-.3.516-.744.924-1.332 1.224-.576.3-1.23.45-1.962.45-1.32 0-2.328-.324-3.024-.972-.528-.492-.882-1.05-1.062-1.674-.18-.624-.27-1.554-.27-2.79V2.164c0-.456-.036-.786-.108-.99a.647.647 0 00-.414-.414c-.192-.072-.504-.12-.936-.144v-.36c.504.036 1.272.054 2.304.054.972 0 1.734-.018 2.286-.054v.36c-.432.024-.75.072-.954.144a.648.648 0 00-.396.414c-.072.204-.108.534-.108.99v5.958c0 .96.066 1.758.198 2.394.132.636.402 1.146.81 1.53.42.384 1.032.576 1.836.576 1.272 0 2.166-.408 2.682-1.224.516-.816.774-1.962.774-3.438V2.344c0-.648-.12-1.092-.36-1.332-.228-.24-.654-.372-1.278-.396v-.36a23.64 23.64 0 001.836.054c.72 0 1.278-.018 1.674-.054v.36zM88.97 12.1c-.276.408-.552.702-.828.882-.276.18-.642.27-1.098.27-.492 0-.9-.144-1.224-.432-.312-.288-.546-.792-.702-1.512l-.396-1.8c-.144-.624-.282-1.104-.414-1.44a1.79 1.79 0 00-.558-.81c-.252-.204-.606-.306-1.062-.306h-1.71v4.14c0 .456.036.786.108.99a.648.648 0 00.396.414c.204.072.522.12.954.144V13a37.257 37.257 0 00-2.286-.054c-1.032 0-1.8.018-2.304.054v-.36c.432-.024.744-.072.936-.144a.647.647 0 00.414-.414c.072-.204.108-.534.108-.99V2.164c0-.456-.036-.786-.108-.99A.647.647 0 0078.78.76c-.192-.072-.504-.12-.936-.144v-.36c.504.036 1.236.054 2.196.054l1.944-.018c.228-.012.486-.018.774-.018 1.392 0 2.46.294 3.204.882.756.576 1.134 1.326 1.134 2.25 0 .468-.114.942-.342 1.422-.216.468-.588.894-1.116 1.278-.516.372-1.194.624-2.034.756l.216.036c.792.132 1.368.372 1.728.72.36.348.624.9.792 1.656l.45 1.836c.12.552.246.936.378 1.152.132.216.312.324.54.324a.77.77 0 00.504-.162c.144-.108.306-.282.486-.522l.27.198zM82.309.616c-.372 0-.654.042-.846.126a.717.717 0 00-.378.45c-.072.216-.108.54-.108.972v4.428h1.206c1.188 0 2.004-.264 2.448-.792.444-.528.666-1.26.666-2.196 0-.984-.234-1.728-.702-2.232-.468-.504-1.23-.756-2.286-.756z" fill="#E4B0A2"/></svg>