<svg width="115" height="20" fill="none" xmlns="http://www.w3.org/2000/svg"><path d="M12.628 4.616c-.432.024-.75.072-.954.144a.648.648 0 00-.396.414c-.072.204-.108.534-.108.99v8.928c0 .456.036.786.108.99a.648.648 0 00.396.414c.204.072.522.12.954.144V17c-.504-.036-1.272-.054-2.304-.054-1.128 0-2.01.018-2.646.054v-.36c.54-.024.93-.072 1.17-.144a.769.769 0 00.504-.414c.096-.204.144-.534.144-.99V6.164c0-.456-.036-.786-.108-.99a.649.649 0 00-.414-.432c-.204-.084-.516-.126-.936-.126h-.234c-.432 0-.744.042-.936.126a.652.652 0 00-.378.414c-.06.192-.108.528-.144 1.008-.036.372-.078.954-.126 1.746-.12 1.896-.276 3.474-.468 4.734-.18 1.248-.522 2.328-1.026 3.24-.504.912-1.218 1.368-2.142 1.368-.456 0-.846-.096-1.17-.288-.312-.204-.468-.516-.468-.936 0-.312.096-.558.288-.738.204-.192.462-.288.774-.288.264 0 .48.072.648.216a.7.7 0 01.27.576c0 .252-.06.462-.18.63-.12.156-.318.312-.594.468.108.012.252.018.432.018.852 0 1.506-.51 1.962-1.53.456-1.02.768-2.226.936-3.618.168-1.404.318-3.27.45-5.598.012-.096.018-.228.018-.396 0-.312-.042-.546-.126-.702-.084-.156-.228-.264-.432-.324s-.51-.102-.918-.126v-.36c.504.036 1.122.054 1.854.054.18 0 .45-.012.81-.036l.774-.018 1.206.018c.552.024 1.008.036 1.368.036.924 0 1.638-.018 2.142-.054v.36zm10.97 10.872c.289.744.703 1.128 1.243 1.152V17a27.034 27.034 0 00-1.926-.054c-1.032 0-1.8.018-2.304.054v-.36c.456-.024.78-.078.972-.162.204-.096.306-.264.306-.504 0-.204-.072-.486-.216-.846l-1.098-2.952h-4.356l-.738 1.908c-.24.648-.36 1.14-.36 1.476 0 .372.126.642.378.81.264.168.66.258 1.188.27V17a39.38 39.38 0 00-2.07-.054c-.54 0-.99.018-1.35.054v-.36c.6-.144 1.074-.666 1.422-1.566l4.23-10.908h.288l4.392 11.322zm-3.167-3.672l-2.016-5.382-2.052 5.382h4.068zm17.53-7.2c-.432.024-.75.072-.954.144a.648.648 0 00-.396.414c-.072.204-.108.534-.108.99v8.928c0 .456.035.786.108.99a.648.648 0 00.396.414c.204.072.522.12.954.144V17a35.584 35.584 0 00-2.304-.054c-.96 0-1.722.018-2.286.054v-.36c.431-.024.743-.072.935-.144a.647.647 0 00.415-.414c.072-.204.108-.534.108-.99V6.578l-6.21 8.802c.012.348.06.612.143.792a.66.66 0 00.415.342c.192.06.492.102.9.126V17a37.257 37.257 0 00-2.287-.054c-1.031 0-1.8.018-2.303.054v-.36c.432-.024.744-.072.936-.144a.647.647 0 00.414-.414c.072-.204.108-.534.108-.99V6.164c0-.456-.037-.786-.108-.99a.647.647 0 00-.415-.414c-.192-.072-.503-.12-.936-.144v-.36c.505.036 1.273.054 2.305.054.96 0 1.721-.018 2.285-.054v.36c-.431.024-.75.072-.954.144a.648.648 0 00-.395.414c-.073.204-.108.534-.108.99v8.514l6.21-8.802c-.013-.348-.06-.606-.145-.774a.652.652 0 00-.413-.36c-.193-.06-.492-.102-.9-.126v-.36c.563.036 1.325.054 2.285.054 1.032 0 1.8-.018 2.305-.054v.36zM34.45.026c.288 0 .516.09.684.27.18.18.27.42.27.72 0 .252-.072.474-.217.666-.132.192-.348.378-.648.558-.755.456-1.691.684-2.807.684-1.117 0-2.053-.228-2.809-.684-.3-.18-.521-.366-.665-.558a1.147 1.147 0 01-.198-.666c0-.3.084-.54.252-.72.18-.18.414-.27.702-.27.287 0 .521.09.701.27.192.168.288.402.288.702 0 .252-.072.456-.216.612a.934.934 0 01-.54.306c.252.24.612.408 1.08.504a6.97 6.97 0 002.808 0c.468-.096.828-.264 1.08-.504a1.024 1.024 0 01-.558-.306c-.132-.156-.197-.36-.197-.612 0-.3.096-.534.288-.702a.989.989 0 01.701-.27zM50.602 16.1c-.264.396-.534.69-.81.882-.276.18-.648.27-1.116.27-.48 0-.882-.138-1.206-.414-.312-.276-.552-.786-.72-1.53l-.504-2.232c-.144-.612-.288-1.08-.432-1.404a1.57 1.57 0 00-.684-.792c-.312-.204-.756-.306-1.332-.306H42.61v4.518c0 .456.036.786.108.99a.648.648 0 00.396.414c.204.072.522.12.954.144V17a37.257 37.257 0 00-2.286-.054c-1.032 0-1.8.018-2.304.054v-.36c.432-.024.744-.072.936-.144a.647.647 0 00.414-.414c.072-.204.108-.534.108-.99V6.164c0-.456-.036-.786-.108-.99a.647.647 0 00-.414-.414c-.192-.072-.504-.12-.936-.144v-.36c.504.036 1.272.054 2.304.054.96 0 1.722-.018 2.286-.054v.36c-.432.024-.75.072-.954.144a.648.648 0 00-.396.414c-.072.204-.108.534-.108.99v4.068c.888-.012 1.596-.36 2.124-1.044l1.728-2.196c.612-.756.918-1.332.918-1.728 0-.42-.372-.636-1.116-.648v-.36a39.38 39.38 0 002.07.054c.66 0 1.17-.018 1.53-.054v.36c-.816.12-1.524.558-2.124 1.314l-3.384 4.32c.96.036 1.74.246 2.34.63.612.372 1.026 1.026 1.242 1.962l.522 2.268c.132.576.252.966.36 1.17.12.204.294.306.522.306a.77.77 0 00.504-.162c.144-.108.306-.282.486-.522l.27.198zM68.274 4.616c-.432.024-.75.072-.954.144a.648.648 0 00-.396.414c-.072.204-.108.534-.108.99v8.928c0 .456.036.792.108 1.008.072.204.21.348.414.432.204.072.516.108.936.108h.558c-.084.792-.126 1.5-.126 2.124 0 .48.018.852.054 1.116h-.414c-.084-.78-.192-1.368-.324-1.764-.132-.384-.36-.666-.684-.846-.312-.18-.78-.27-1.404-.27h-3.69l-1.44-.018c-.96-.024-1.74-.036-2.34-.036-1.032 0-1.8.018-2.304.054v-.36c.432-.024.744-.072.936-.144a.647.647 0 00.414-.414c.072-.204.108-.534.108-.99V6.164c0-.456-.036-.786-.108-.99a.647.647 0 00-.414-.414c-.192-.072-.504-.12-.936-.144v-.36c.504.036 1.272.054 2.304.054.96 0 1.722-.018 2.286-.054v.36c-.432.024-.75.072-.954.144a.648.648 0 00-.396.414c-.072.204-.108.534-.108.99v8.928c0 .456.036.792.108 1.008.072.204.21.348.414.432.204.072.516.108.936.108h2.934c.42 0 .732-.036.936-.108a.703.703 0 00.414-.432c.072-.216.108-.552.108-1.008V6.164c0-.456-.036-.786-.108-.99a.647.647 0 00-.414-.414c-.192-.072-.504-.12-.936-.144v-.36c.552.036 1.314.054 2.286.054 1.032 0 1.8-.018 2.304-.054v.36zm10.866 10.08c0 .684.042 1.452.126 2.304-.816-.036-2.19-.054-4.122-.054-2.304 0-4.044.018-5.22.054v-.36c.432-.024.744-.072.936-.144a.647.647 0 00.414-.414c.072-.204.108-.534.108-.99V6.164c0-.456-.036-.786-.108-.99a.647.647 0 00-.414-.414c-.192-.072-.504-.12-.936-.144v-.36c1.176.036 2.916.054 5.22.054 1.764 0 3.018-.018 3.762-.054-.084.792-.126 1.5-.126 2.124 0 .468.018.84.054 1.116h-.414c-.084-.78-.192-1.356-.324-1.728-.132-.384-.354-.66-.666-.828-.312-.18-.786-.27-1.422-.27h-1.494c-.432 0-.75.036-.954.108a.595.595 0 00-.396.396c-.072.204-.108.534-.108.99v4.248h1.188c.42 0 .744-.096.972-.288.228-.204.378-.438.45-.702.084-.276.15-.618.198-1.026l.054-.36h.414a23.937 23.937 0 00-.054 1.692v.864c0 .612.036 1.464.108 2.556h-.414a74.267 74.267 0 01-.108-.864c-.06-.504-.228-.882-.504-1.134-.264-.252-.636-.378-1.116-.378h-1.188v4.32c0 .456.036.786.108.99a.648.648 0 00.396.414c.204.06.522.09.954.09h1.314c.744 0 1.308-.096 1.692-.288.396-.204.684-.522.864-.954.18-.444.312-1.092.396-1.944h.414c-.036.324-.054.756-.054 1.296zm13.867-10.08c-.432.024-.75.072-.954.144a.648.648 0 00-.396.414c-.072.204-.108.534-.108.99v8.928c0 .456.036.786.108.99a.648.648 0 00.396.414c.204.072.522.12.954.144V17c-.504-.036-1.272-.054-2.304-.054-.972 0-1.734.018-2.286.054v-.36c.432-.024.744-.072.936-.144a.647.647 0 00.414-.414c.072-.204.108-.534.108-.99v-4.32h-5.85v4.32c0 .456.036.786.108.99a.648.648 0 00.396.414c.204.072.522.12.954.144V17a37.257 37.257 0 00-2.286-.054c-1.032 0-1.8.018-2.304.054v-.36c.432-.024.744-.072.936-.144a.647.647 0 00.414-.414c.072-.204.108-.534.108-.99V6.164c0-.456-.036-.786-.108-.99a.647.647 0 00-.414-.414c-.192-.072-.504-.12-.936-.144v-.36c.504.036 1.272.054 2.304.054.96 0 1.722-.018 2.286-.054v.36c-.432.024-.75.072-.954.144a.648.648 0 00-.396.414c-.072.204-.108.534-.108.99v4.248h5.85V6.164c0-.456-.036-.786-.108-.99a.647.647 0 00-.414-.414c-.192-.072-.504-.12-.936-.144v-.36c.552.036 1.314.054 2.286.054 1.032 0 1.8-.018 2.304-.054v.36zm11.409-.36c-.084.852-.126 1.62-.126 2.304 0 .6.018 1.092.054 1.476h-.414c-.096-.924-.216-1.608-.36-2.052-.144-.456-.396-.786-.756-.99-.36-.216-.912-.324-1.656-.324h-.972v10.242c0 .504.048.87.144 1.098a.813.813 0 00.504.468c.24.084.63.138 1.17.162V17a49.13 49.13 0 00-2.646-.054c-1.2 0-2.088.018-2.664.054v-.36c.54-.024.93-.078 1.17-.162a.813.813 0 00.504-.468c.096-.228.144-.594.144-1.098V4.67h-.972c-.744 0-1.296.108-1.656.324-.36.204-.612.534-.756.99-.144.444-.264 1.128-.36 2.052h-.414c.036-.384.054-.876.054-1.476 0-.684-.042-1.452-.126-2.304.996.036 2.688.054 5.076.054 2.376 0 4.062-.018 5.058-.054zm4.411 7.596v3.24c0 .456.048.786.144.99a.769.769 0 00.504.414c.24.072.63.12 1.17.144V17a49.126 49.126 0 00-2.646-.054c-1.032 0-1.8.018-2.304.054v-.36c.432-.024.744-.072.936-.144a.647.647 0 00.414-.414c.072-.204.108-.534.108-.99V6.164c0-.456-.036-.786-.108-.99a.647.647 0 00-.414-.414c-.192-.072-.504-.12-.936-.144v-.36c.504.036 1.236.054 2.196.054l1.944-.018c.228-.012.486-.018.774-.018 1.404 0 2.478.324 3.222.972.744.636 1.116 1.494 1.116 2.574 0 .66-.15 1.296-.45 1.908-.288.6-.786 1.104-1.494 1.512-.696.408-1.626.612-2.79.612h-1.386zm1.332-7.236c-.372 0-.654.042-.846.126a.717.717 0 00-.378.45c-.072.216-.108.54-.108.972v5.328h1.206c1.176 0 1.986-.312 2.43-.936.456-.636.684-1.482.684-2.538 0-1.164-.234-2.022-.702-2.574-.456-.552-1.218-.828-2.286-.828z" fill="#E4B0A2"/></svg>