<svg width="53" height="14" fill="none" xmlns="http://www.w3.org/2000/svg"><path d="M11.535.616c-.42.024-.732.09-.936.198a.769.769 0 00-.414.504c-.072.228-.108.57-.108 1.026V13.09h-.414L2.103 1.408v9.504c0 .468.036.816.108 1.044.084.228.24.396.468.504.228.096.582.156 1.062.18V13a23.64 23.64 0 00-1.836-.054c-.72 0-1.278.018-1.674.054v-.36c.42-.024.732-.084.936-.18a.83.83 0 00.414-.504c.072-.24.108-.588.108-1.044V2.164c0-.456-.036-.786-.108-.99A.647.647 0 001.167.76C.975.688.663.64.231.616v-.36c.396.036.954.054 1.674.054.54 0 1.008-.018 1.404-.054l6.354 9.792V2.344c0-.468-.042-.816-.126-1.044a.755.755 0 00-.45-.486C8.86.706 8.505.64 8.025.616v-.36C8.457.292 9.07.31 9.861.31c.72 0 1.278-.018 1.674-.054v.36zm11.11 10.872c.288.744.702 1.128 1.242 1.152V13a27.034 27.034 0 00-1.926-.054c-1.032 0-1.8.018-2.304.054v-.36c.456-.024.78-.078.972-.162.204-.096.306-.264.306-.504 0-.204-.072-.486-.216-.846L19.62 8.176h-4.356l-.738 1.908c-.24.648-.36 1.14-.36 1.476 0 .372.126.642.378.81.264.168.66.258 1.188.27V13a39.38 39.38 0 00-2.07-.054c-.54 0-.99.018-1.35.054v-.36c.6-.144 1.074-.666 1.422-1.566L17.965.166h.288l4.392 11.322zm-3.168-3.672L17.46 2.434l-2.052 5.382h4.068zm9.654-7.2c-.432.024-.75.072-.954.144a.648.648 0 00-.396.414c-.072.204-.108.534-.108.99v8.928c0 .456.036.786.108.99a.648.648 0 00.396.414c.204.072.522.12.954.144V13a37.257 37.257 0 00-2.286-.054c-1.032 0-1.8.018-2.304.054v-.36c.432-.024.744-.072.936-.144a.647.647 0 00.414-.414c.072-.204.108-.534.108-.99V2.164c0-.456-.036-.786-.108-.99a.647.647 0 00-.414-.414c-.192-.072-.504-.12-.936-.144v-.36c.504.036 1.272.054 2.304.054.96 0 1.722-.018 2.286-.054v.36zm6.46 0c-.432.024-.75.072-.954.144a.648.648 0 00-.396.414c-.072.204-.108.534-.108.99v8.928c0 .456.036.786.108.99a.648.648 0 00.396.414c.204.06.522.09.954.09h1.314c.744 0 1.308-.102 1.692-.306.396-.216.684-.558.864-1.026.18-.468.312-1.146.396-2.034h.414a16.02 16.02 0 00-.054 1.476c0 .684.042 1.452.126 2.304-.816-.036-2.19-.054-4.122-.054-2.304 0-4.044.018-5.22.054v-.36c.432-.024.744-.072.936-.144a.647.647 0 00.414-.414c.072-.204.108-.534.108-.99V2.164c0-.456-.036-.786-.108-.99a.647.647 0 00-.414-.414C31.745.688 31.433.64 31 .616v-.36c.504.036 1.272.054 2.304.054.96 0 1.722-.018 2.286-.054v.36zm15.802 10.872c.288.744.702 1.128 1.242 1.152V13a27.034 27.034 0 00-1.926-.054c-1.032 0-1.8.018-2.304.054v-.36c.456-.024.78-.078.972-.162.204-.096.306-.264.306-.504 0-.204-.072-.486-.216-.846l-1.098-2.952h-4.356l-.738 1.908c-.24.648-.36 1.14-.36 1.476 0 .372.126.642.378.81.264.168.66.258 1.188.27V13a39.38 39.38 0 00-2.07-.054c-.54 0-.99.018-1.35.054v-.36c.6-.144 1.074-.666 1.422-1.566L46.713.166H47l4.392 11.322zm-3.168-3.672l-2.016-5.382-2.052 5.382h4.068z" fill="#E4B0A2"/></svg>