<svg width="207" height="17" fill="none" xmlns="http://www.w3.org/2000/svg"><path d="M14.796 8.52c0 .972-.264 1.842-.792 2.61-.528.756-1.266 1.368-2.214 1.836-.948.456-2.046.726-3.294.81v.648c0 .456.036.786.108.99a.648.648 0 00.396.414c.204.072.522.12.954.144v.36a37.257 37.257 0 00-2.286-.054c-1.032 0-1.8.018-2.304.054v-.36c.432-.024.744-.072.936-.144a.647.647 0 00.414-.414c.072-.204.108-.534.108-.99v-.63c-1.956-.12-3.504-.636-4.644-1.548C1.05 11.334.486 10.104.486 8.556c0-.936.264-1.77.792-2.502.528-.744 1.272-1.338 2.232-1.782.96-.444 2.064-.708 3.312-.792v-.648c0-.456-.036-.786-.108-.99a.647.647 0 00-.414-.414c-.192-.072-.504-.12-.936-.144v-.36c.504.036 1.272.054 2.304.054.96 0 1.722-.018 2.286-.054v.36c-.432.024-.75.072-.954.144a.648.648 0 00-.396.414c-.072.204-.108.534-.108.99v.63c1.944.12 3.48.618 4.608 1.494 1.128.876 1.692 2.064 1.692 3.564zm-12.51-.036c0 .9.192 1.704.576 2.412a4.566 4.566 0 001.602 1.71 5.945 5.945 0 002.358.828v-9.63c-.912.096-1.71.354-2.394.774a4.407 4.407 0 00-1.584 1.638c-.372.672-.558 1.428-.558 2.268zm10.71.108c0-.864-.192-1.638-.576-2.322a4.37 4.37 0 00-1.602-1.638c-.672-.42-1.446-.69-2.322-.81v9.63c.912-.108 1.704-.378 2.376-.81a4.457 4.457 0 001.566-1.71c.372-.696.558-1.476.558-2.34zm9.317-6.588c1.14 0 2.136.258 2.988.774.864.516 1.53 1.266 1.998 2.25.48.972.72 2.136.72 3.492 0 1.32-.246 2.49-.738 3.51-.48 1.02-1.158 1.812-2.034 2.376-.864.564-1.848.846-2.952.846-1.14 0-2.142-.258-3.006-.774-.852-.516-1.518-1.26-1.998-2.232-.468-.984-.702-2.154-.702-3.51 0-1.32.24-2.49.72-3.51.492-1.02 1.17-1.812 2.034-2.376.876-.564 1.866-.846 2.97-.846zm-.072.324c-.768 0-1.446.27-2.034.81-.576.528-1.026 1.272-1.35 2.232-.312.96-.468 2.058-.468 3.294 0 1.248.174 2.346.522 3.294.36.948.84 1.68 1.44 2.196.6.516 1.272.774 2.016.774a2.89 2.89 0 002.016-.792c.588-.54 1.038-1.29 1.35-2.25.324-.96.486-2.058.486-3.294 0-1.248-.18-2.346-.54-3.294-.348-.948-.822-1.68-1.422-2.196-.6-.516-1.272-.774-2.016-.774zm17.752-.072c-.084.852-.126 1.62-.126 2.304 0 .6.018 1.092.054 1.476h-.414c-.096-.924-.216-1.608-.36-2.052-.144-.456-.396-.786-.756-.99-.36-.216-.912-.324-1.656-.324h-.972v10.242c0 .504.048.87.144 1.098a.813.813 0 00.504.468c.24.084.63.138 1.17.162V15a49.126 49.126 0 00-2.646-.054c-1.2 0-2.088.018-2.664.054v-.36c.54-.024.93-.078 1.17-.162a.813.813 0 00.504-.468c.096-.228.144-.594.144-1.098V2.67h-.972c-.744 0-1.296.108-1.656.324-.36.204-.612.534-.756.99-.144.444-.264 1.128-.36 2.052h-.414c.036-.384.054-.876.054-1.476 0-.684-.042-1.452-.126-2.304.996.036 2.688.054 5.076.054 2.376 0 4.062-.018 5.058-.054zm7.562-.252c1.14 0 2.136.258 2.988.774.864.516 1.53 1.266 1.998 2.25.48.972.72 2.136.72 3.492 0 1.32-.246 2.49-.738 3.51-.48 1.02-1.158 1.812-2.034 2.376-.864.564-1.848.846-2.952.846-1.14 0-2.142-.258-3.006-.774-.852-.516-1.518-1.26-1.998-2.232-.468-.984-.702-2.154-.702-3.51 0-1.32.24-2.49.72-3.51.492-1.02 1.17-1.812 2.034-2.376.876-.564 1.866-.846 2.97-.846zm-.072.324c-.768 0-1.446.27-2.034.81-.576.528-1.026 1.272-1.35 2.232-.312.96-.468 2.058-.468 3.294 0 1.248.174 2.346.522 3.294.36.948.84 1.68 1.44 2.196.6.516 1.272.774 2.016.774a2.89 2.89 0 002.016-.792c.588-.54 1.038-1.29 1.35-2.25.324-.96.486-2.058.486-3.294 0-1.248-.18-2.346-.54-3.294-.348-.948-.822-1.68-1.422-2.196-.6-.516-1.272-.774-2.016-.774zm24.325.288c-.432.024-.75.072-.954.144a.648.648 0 00-.396.414c-.072.204-.108.534-.108.99v8.928c0 .456.036.786.108.99a.648.648 0 00.396.414c.204.072.522.12.954.144V15c-.504-.036-1.272-.054-2.304-.054l-1.332.018c-.768.024-1.392.036-1.872.036-.468 0-1.05-.012-1.746-.036l-1.026-.018-1.062.018a52.89 52.89 0 01-1.782.036c-.516 0-1.146-.012-1.89-.036l-1.296-.018c-1.032 0-1.8.018-2.304.054v-.36c.432-.024.744-.072.936-.144a.647.647 0 00.414-.414c.072-.204.108-.534.108-.99V4.164c0-.456-.036-.786-.108-.99a.647.647 0 00-.414-.414c-.192-.072-.504-.12-.936-.144v-.36c.504.036 1.272.054 2.304.054.876 0 1.578-.018 2.106-.054v.36c-.384.024-.66.072-.828.144-.168.072-.288.21-.36.414-.06.204-.09.534-.09.99v8.928c0 .456.036.792.108 1.008.072.204.21.348.414.432.204.072.516.108.936.108h1.422c.42 0 .732-.036.936-.108a.703.703 0 00.414-.432c.072-.216.108-.552.108-1.008V4.164c0-.456-.03-.786-.09-.99a.6.6 0 00-.36-.414c-.168-.072-.444-.12-.828-.144v-.36c.528.036 1.23.054 2.106.054.948 0 1.656-.018 2.124-.054v.36c-.384.024-.666.072-.846.144-.168.072-.282.21-.342.414-.06.204-.09.534-.09.99v8.928c0 .456.036.792.108 1.008.072.204.21.348.414.432.204.072.516.108.936.108h1.422c.42 0 .732-.036.936-.108a.703.703 0 00.414-.432c.072-.216.108-.552.108-1.008V4.164c0-.456-.03-.786-.09-.99a.6.6 0 00-.36-.414c-.168-.072-.444-.12-.828-.144v-.36c.528.036 1.23.054 2.106.054 1.032 0 1.8-.018 2.304-.054v.36zM84.801 14.1c-.264.396-.534.69-.81.882-.276.18-.648.27-1.116.27-.48 0-.882-.138-1.206-.414-.312-.276-.552-.786-.72-1.53l-.504-2.232c-.144-.612-.288-1.08-.432-1.404a1.57 1.57 0 00-.684-.792c-.312-.204-.756-.306-1.332-.306H76.81v4.518c0 .456.036.786.108.99a.648.648 0 00.396.414c.204.072.522.12.954.144V15a37.257 37.257 0 00-2.286-.054c-1.032 0-1.8.018-2.304.054v-.36c.432-.024.744-.072.936-.144a.647.647 0 00.414-.414c.072-.204.108-.534.108-.99V4.164c0-.456-.036-.786-.108-.99a.647.647 0 00-.414-.414c-.192-.072-.504-.12-.936-.144v-.36c.504.036 1.272.054 2.304.054.96 0 1.722-.018 2.286-.054v.36c-.432.024-.75.072-.954.144a.648.648 0 00-.396.414c-.072.204-.108.534-.108.99v4.068c.888-.012 1.596-.36 2.124-1.044l1.728-2.196c.612-.756.918-1.332.918-1.728 0-.42-.372-.636-1.116-.648v-.36a39.38 39.38 0 002.07.054c.66 0 1.17-.018 1.53-.054v.36c-.816.12-1.524.558-2.124 1.314l-3.384 4.32c.96.036 1.74.246 2.34.63.612.372 1.026 1.026 1.242 1.962l.522 2.268c.132.576.252.966.36 1.17.12.204.294.306.522.306a.77.77 0 00.504-.162c.144-.108.306-.282.486-.522l.27.198zM91.72 2.004c1.14 0 2.136.258 2.988.774.864.516 1.53 1.266 1.998 2.25.48.972.72 2.136.72 3.492 0 1.32-.246 2.49-.738 3.51-.48 1.02-1.158 1.812-2.034 2.376-.864.564-1.848.846-2.952.846-1.14 0-2.142-.258-3.006-.774-.852-.516-1.518-1.26-1.998-2.232-.468-.984-.702-2.154-.702-3.51 0-1.32.24-2.49.72-3.51.492-1.02 1.17-1.812 2.034-2.376.876-.564 1.866-.846 2.97-.846zm-.072.324c-.768 0-1.446.27-2.034.81-.576.528-1.026 1.272-1.35 2.232-.312.96-.468 2.058-.468 3.294 0 1.248.174 2.346.522 3.294.36.948.84 1.68 1.44 2.196.6.516 1.272.774 2.016.774a2.89 2.89 0 002.016-.792c.588-.54 1.038-1.29 1.35-2.25.324-.96.486-2.058.486-3.294 0-1.248-.18-2.346-.54-3.294-.348-.948-.822-1.68-1.422-2.196-.6-.516-1.272-.774-2.016-.774zm18.372.288c-.432.024-.75.072-.954.144a.648.648 0 00-.396.414c-.072.204-.108.534-.108.99v8.928c0 .456.036.786.108.99a.648.648 0 00.396.414c.204.072.522.12.954.144V15c-.504-.036-1.272-.054-2.304-.054-1.128 0-2.01.018-2.646.054v-.36c.54-.024.93-.072 1.17-.144a.769.769 0 00.504-.414c.096-.204.144-.534.144-.99V4.164c0-.456-.036-.786-.108-.99a.649.649 0 00-.414-.432c-.204-.084-.516-.126-.936-.126h-.234c-.432 0-.744.042-.936.126a.652.652 0 00-.378.414c-.06.192-.108.528-.144 1.008-.036.372-.078.954-.126 1.746-.12 1.896-.276 3.474-.468 4.734-.18 1.248-.522 2.328-1.026 3.24-.504.912-1.218 1.368-2.142 1.368-.456 0-.846-.096-1.17-.288-.312-.204-.468-.516-.468-.936 0-.312.096-.558.288-.738.204-.192.462-.288.774-.288.264 0 .48.072.648.216a.7.7 0 01.27.576c0 .252-.06.462-.18.63-.12.156-.318.312-.594.468.108.012.252.018.432.018.852 0 1.506-.51 1.962-1.53.456-1.02.768-2.226.936-3.618.168-1.404.318-3.27.45-5.598.012-.096.018-.228.018-.396 0-.312-.042-.546-.126-.702-.084-.156-.228-.264-.432-.324s-.51-.102-.918-.126v-.36c.504.036 1.122.054 1.854.054.18 0 .45-.012.81-.036l.774-.018 1.206.018c.552.024 1.008.036 1.368.036.924 0 1.638-.018 2.142-.054v.36zm11.331 10.872c.288.744.702 1.128 1.242 1.152V15a27.034 27.034 0 00-1.926-.054c-1.032 0-1.8.018-2.304.054v-.36c.456-.024.78-.078.972-.162.204-.096.306-.264.306-.504 0-.204-.072-.486-.216-.846l-1.098-2.952h-4.356l-.738 1.908c-.24.648-.36 1.14-.36 1.476 0 .372.126.642.378.81.264.168.66.258 1.188.27V15a39.38 39.38 0 00-2.07-.054c-.54 0-.99.018-1.35.054v-.36c.6-.144 1.074-.666 1.422-1.566l4.23-10.908h.288l4.392 11.322zm-3.168-3.672l-2.016-5.382-2.052 5.382h4.068zm14.92-3.276c-.468 0-.822-.192-1.062-.576-.204-.324-.306-.72-.306-1.188 0-.6.15-1.14.45-1.62.312-.48.78-.864 1.404-1.152l.162.324a2.502 2.502 0 00-.972.738c-.264.336-.396.678-.396 1.026 0 .144.018.27.054.378.192-.156.414-.234.666-.234.324 0 .594.108.81.324.228.204.342.48.342.828 0 .324-.114.6-.342.828a1.099 1.099 0 01-.81.324zm-3.06 0c-.468 0-.822-.192-1.062-.576-.204-.324-.306-.72-.306-1.188 0-.6.15-1.14.45-1.62.312-.48.78-.864 1.404-1.152l.162.324a2.502 2.502 0 00-.972.738c-.264.336-.396.678-.396 1.026 0 .144.018.27.054.378.192-.156.414-.234.666-.234.324 0 .594.108.81.324.228.204.342.48.342.828 0 .324-.114.6-.342.828a1.099 1.099 0 01-.81.324zm18.395-3.924c-.432.024-.75.072-.954.144a.648.648 0 00-.396.414c-.072.204-.108.534-.108.99v8.928c0 .456.036.786.108.99a.648.648 0 00.396.414c.204.072.522.12.954.144V15c-.504-.036-1.272-.054-2.304-.054-.972 0-1.734.018-2.286.054v-.36c.432-.024.744-.072.936-.144a.647.647 0 00.414-.414c.072-.204.108-.534.108-.99V4.164c0-.456-.036-.786-.108-.99a.649.649 0 00-.414-.432c-.204-.084-.516-.126-.936-.126h-2.934c-.42 0-.732.042-.936.126a.649.649 0 00-.414.432c-.072.204-.108.534-.108.99v8.928c0 .456.036.786.108.99a.648.648 0 00.396.414c.204.072.522.12.954.144V15a37.257 37.257 0 00-2.286-.054c-1.032 0-1.8.018-2.304.054v-.36c.432-.024.744-.072.936-.144a.647.647 0 00.414-.414c.072-.204.108-.534.108-.99V4.164c0-.456-.036-.786-.108-.99a.647.647 0 00-.414-.414c-.192-.072-.504-.12-.936-.144v-.36c.504.036 1.272.054 2.304.054.6 0 1.38-.012 2.34-.036l1.44-.018 1.404.018c.96.024 1.734.036 2.322.036 1.032 0 1.8-.018 2.304-.054v.36zm14.343 0c-.432.024-.75.072-.954.144a.648.648 0 00-.396.414c-.072.204-.108.534-.108.99v8.928c0 .456.036.786.108.99a.648.648 0 00.396.414c.204.072.522.12.954.144V15c-.504-.036-1.272-.054-2.304-.054-.96 0-1.722.018-2.286.054v-.36c.432-.024.744-.072.936-.144a.647.647 0 00.414-.414c.072-.204.108-.534.108-.99V4.578l-6.21 8.802c.012.348.06.612.144.792a.66.66 0 00.414.342c.192.06.492.102.9.126V15a37.257 37.257 0 00-2.286-.054c-1.032 0-1.8.018-2.304.054v-.36c.432-.024.744-.072.936-.144a.647.647 0 00.414-.414c.072-.204.108-.534.108-.99V4.164c0-.456-.036-.786-.108-.99a.647.647 0 00-.414-.414c-.192-.072-.504-.12-.936-.144v-.36c.504.036 1.272.054 2.304.054.96 0 1.722-.018 2.286-.054v.36c-.432.024-.75.072-.954.144a.648.648 0 00-.396.414c-.072.204-.108.534-.108.99v8.514l6.21-8.802c-.012-.348-.06-.606-.144-.774a.652.652 0 00-.414-.36c-.192-.06-.492-.102-.9-.126v-.36c.564.036 1.326.054 2.286.054 1.032 0 1.8-.018 2.304-.054v.36zM175.783 14.1c-.264.396-.534.69-.81.882-.276.18-.648.27-1.116.27-.48 0-.882-.138-1.206-.414-.312-.276-.552-.786-.72-1.53l-.504-2.232c-.144-.612-.288-1.08-.432-1.404a1.57 1.57 0 00-.684-.792c-.312-.204-.756-.306-1.332-.306h-1.188v4.518c0 .456.036.786.108.99a.648.648 0 00.396.414c.204.072.522.12.954.144V15a37.257 37.257 0 00-2.286-.054c-1.032 0-1.8.018-2.304.054v-.36c.432-.024.744-.072.936-.144a.647.647 0 00.414-.414c.072-.204.108-.534.108-.99V4.164c0-.456-.036-.786-.108-.99a.647.647 0 00-.414-.414c-.192-.072-.504-.12-.936-.144v-.36c.504.036 1.272.054 2.304.054.96 0 1.722-.018 2.286-.054v.36c-.432.024-.75.072-.954.144a.648.648 0 00-.396.414c-.072.204-.108.534-.108.99v4.068c.888-.012 1.596-.36 2.124-1.044l1.728-2.196c.612-.756.918-1.332.918-1.728 0-.42-.372-.636-1.116-.648v-.36a39.38 39.38 0 002.07.054c.66 0 1.17-.018 1.53-.054v.36c-.816.12-1.524.558-2.124 1.314l-3.384 4.32c.96.036 1.74.246 2.34.63.612.372 1.026 1.026 1.242 1.962l.522 2.268c.132.576.252.966.36 1.17.12.204.294.306.522.306a.77.77 0 00.504-.162c.144-.108.306-.282.486-.522l.27.198zM187.82 2.616c-.432.024-.75.072-.954.144a.648.648 0 00-.396.414c-.072.204-.108.534-.108.99v8.928c0 .456.036.786.108.99a.648.648 0 00.396.414c.204.072.522.12.954.144V15c-.504-.036-1.272-.054-2.304-.054-1.128 0-2.01.018-2.646.054v-.36c.54-.024.93-.072 1.17-.144a.769.769 0 00.504-.414c.096-.204.144-.534.144-.99V9.258c-.372.18-.882.336-1.53.468a9.114 9.114 0 01-1.854.198c-.972 0-1.74-.21-2.304-.63a2.057 2.057 0 01-.684-.9c-.12-.36-.18-.864-.18-1.512V3.93c0-.492-.102-.828-.306-1.008-.204-.192-.558-.288-1.062-.288v-.378c1.104.048 1.842.072 2.214.072.336 0 1.008-.024 2.016-.072v.378c-.444 0-.756.096-.936.288-.168.18-.252.516-.252 1.008v3.348c0 .444.048.81.144 1.098.096.288.294.522.594.702.3.18.744.27 1.332.27 1.14 0 2.076-.132 2.808-.396V4.164c0-.456-.036-.786-.108-.99a.647.647 0 00-.414-.414c-.192-.072-.504-.12-.936-.144v-.36c.504.036 1.272.054 2.304.054.972 0 1.734-.018 2.286-.054v.36zm11.319 10.872c.288.744.702 1.128 1.242 1.152V15a27.034 27.034 0 00-1.926-.054c-1.032 0-1.8.018-2.304.054v-.36c.456-.024.78-.078.972-.162.204-.096.306-.264.306-.504 0-.204-.072-.486-.216-.846l-1.098-2.952h-4.356l-.738 1.908c-.24.648-.36 1.14-.36 1.476 0 .372.126.642.378.81.264.168.66.258 1.188.27V15a39.38 39.38 0 00-2.07-.054c-.54 0-.99.018-1.35.054v-.36c.6-.144 1.074-.666 1.422-1.566l4.23-10.908h.288l4.392 11.322zm-3.168-3.672l-2.016-5.382-2.052 5.382h4.068zm5.852-7.812c.468 0 .822.192 1.062.576.204.324.306.72.306 1.188 0 .6-.156 1.14-.468 1.62-.3.48-.762.864-1.386 1.152l-.162-.324c.372-.156.69-.402.954-.738.276-.336.414-.678.414-1.026 0-.144-.018-.27-.054-.378a1.026 1.026 0 01-.666.234c-.324 0-.6-.102-.828-.306-.216-.216-.324-.498-.324-.846 0-.324.108-.594.324-.81.228-.228.504-.342.828-.342zm3.06 0c.468 0 .822.192 1.062.576.204.324.306.72.306 1.188 0 .6-.156 1.14-.468 1.62-.3.48-.762.864-1.386 1.152l-.162-.324c.372-.156.69-.402.954-.738.276-.336.414-.678.414-1.026 0-.144-.018-.27-.054-.378a1.026 1.026 0 01-.666.234c-.324 0-.6-.102-.828-.306-.216-.216-.324-.498-.324-.846 0-.324.108-.594.324-.81.228-.228.504-.342.828-.342z" fill="#E4B0A2"/></svg>