<svg width="52" height="14" fill="none" xmlns="http://www.w3.org/2000/svg"><path d="M10.656.256c-.084.852-.126 1.62-.126 2.304 0 .6.018 1.092.054 1.476h-.414c-.096-.924-.216-1.608-.36-2.052-.144-.456-.396-.786-.756-.99C8.694.778 8.142.67 7.398.67h-.972v10.242c0 .504.048.87.144 1.098a.813.813 0 00.504.468c.24.084.63.138 1.17.162V13a49.126 49.126 0 00-2.646-.054c-1.2 0-2.088.018-2.664.054v-.36c.54-.024.93-.078 1.17-.162a.813.813 0 00.504-.468c.096-.228.144-.594.144-1.098V.67H3.78c-.744 0-1.296.108-1.656.324-.36.204-.612.534-.756.99-.144.444-.264 1.128-.36 2.052H.594C.63 3.652.648 3.16.648 2.56c0-.684-.042-1.452-.126-2.304C1.518.292 3.21.31 5.598.31 7.974.31 9.66.292 10.656.256zm3.458 12.87c-.756 0-1.32-.186-1.692-.558-.36-.384-.54-.912-.54-1.584 0-.54.144-.984.432-1.332.3-.348.648-.624 1.044-.828.408-.204.942-.42 1.602-.648.672-.228 1.17-.438 1.494-.63.324-.192.486-.45.486-.774V5.656c0-.696-.15-1.17-.45-1.422-.288-.264-.696-.396-1.224-.396-.84 0-1.434.216-1.782.648.24.06.438.186.594.378.168.192.252.432.252.72 0 .3-.096.54-.288.72-.192.168-.438.252-.738.252-.336 0-.588-.102-.756-.306a1.223 1.223 0 01-.252-.774c0-.288.066-.528.198-.72.144-.192.354-.384.63-.576.288-.204.654-.372 1.098-.504a5.1 5.1 0 011.458-.198c.936 0 1.644.222 2.124.666.3.276.498.612.594 1.008.108.384.162.894.162 1.53v5.004c0 .3.042.516.126.648.084.132.228.198.432.198.144 0 .276-.03.396-.09.132-.072.27-.168.414-.288l.198.306c-.312.24-.582.414-.81.522-.216.096-.492.144-.828.144-.576 0-.978-.144-1.206-.432-.228-.288-.342-.678-.342-1.17-.36.6-.774 1.02-1.242 1.26a3.57 3.57 0 01-1.584.342zm.792-.72c.792 0 1.47-.456 2.034-1.368V7.51a1.252 1.252 0 01-.45.414c-.192.108-.486.252-.882.432a8 8 0 00-1.116.558 2.353 2.353 0 00-.72.702c-.204.3-.306.684-.306 1.152 0 .54.132.948.396 1.224s.612.414 1.044.414zM24.753.058c.527 0 .942.06 1.241.18.313.108.63.27.954.486.264.168.468.252.613.252.108 0 .192-.06.252-.18.06-.132.108-.336.143-.612h.415c-.06.696-.09 1.92-.09 3.672h-.415c-.072-.972-.354-1.788-.846-2.448C26.54.736 25.84.4 24.915.4c-.648 0-1.177.198-1.584.594-.409.384-.613.882-.613 1.494 0 .456.102.852.306 1.188.216.336.486.624.81.864.325.24.787.546 1.387.918l.521.324c.756.468 1.35.882 1.782 1.242.444.348.799.75 1.063 1.206.264.456.396.99.396 1.602 0 1.092-.36 1.938-1.08 2.538-.72.588-1.633.882-2.736.882-.577 0-1.05-.06-1.423-.18a5.139 5.139 0 01-1.043-.486c-.265-.168-.468-.252-.613-.252-.108 0-.192.066-.252.198-.06.12-.107.318-.143.594h-.415c.049-.66.073-2.1.073-4.32h.414c.084 1.212.383 2.196.9 2.952.515.756 1.308 1.134 2.376 1.134.648 0 1.2-.198 1.655-.594.456-.408.684-1.008.684-1.8 0-.672-.227-1.242-.683-1.71-.444-.468-1.152-.996-2.124-1.584a21.402 21.402 0 01-1.729-1.152 4.251 4.251 0 01-1.062-1.206c-.276-.48-.413-1.038-.413-1.674 0-1.008.323-1.776.971-2.304.648-.54 1.453-.81 2.413-.81zm17.982.558c-.432.024-.75.072-.954.144a.648.648 0 00-.396.414c-.072.204-.108.534-.108.99v8.928c0 .456.036.786.108.99a.648.648 0 00.396.414c.204.072.522.12.954.144V13c-.504-.036-1.272-.054-2.304-.054-.972 0-1.734.018-2.286.054v-.36c.432-.024.744-.072.936-.144a.647.647 0 00.414-.414c.072-.204.108-.534.108-.99v-4.32h-5.85v4.32c0 .456.036.786.108.99a.648.648 0 00.396.414c.204.072.522.12.954.144V13a37.257 37.257 0 00-2.286-.054c-1.032 0-1.8.018-2.304.054v-.36c.432-.024.744-.072.936-.144a.647.647 0 00.414-.414c.072-.204.108-.534.108-.99V2.164c0-.456-.036-.786-.108-.99a.647.647 0 00-.414-.414c-.192-.072-.504-.12-.936-.144v-.36c.504.036 1.272.054 2.304.054.96 0 1.722-.018 2.286-.054v.36c-.432.024-.75.072-.954.144a.648.648 0 00-.396.414c-.072.204-.108.534-.108.99v4.248h5.85V2.164c0-.456-.036-.786-.108-.99a.647.647 0 00-.414-.414c-.192-.072-.504-.12-.936-.144v-.36c.552.036 1.314.054 2.286.054 1.032 0 1.8-.018 2.304-.054v.36zm9.087 10.224c-.216.66-.624 1.23-1.224 1.71-.588.468-1.302.702-2.142.702-.852 0-1.59-.192-2.214-.576a3.904 3.904 0 01-1.44-1.638c-.324-.708-.486-1.524-.486-2.448 0-1.044.168-1.95.504-2.718.336-.768.81-1.356 1.422-1.764.612-.42 1.326-.63 2.142-.63 1.08 0 1.908.33 2.484.99.588.648.882 1.638.882 2.97h-5.634c-.036.336-.054.72-.054 1.152 0 .792.126 1.482.378 2.07.264.588.606 1.044 1.026 1.368.432.312.882.468 1.35.468.576 0 1.086-.138 1.53-.414.444-.276.816-.738 1.116-1.386l.36.144zm-3.51-7.02c-.564 0-1.05.276-1.458.828-.408.552-.66 1.368-.756 2.448h3.924c.024-.936-.114-1.716-.414-2.34-.288-.624-.72-.936-1.296-.936z" fill="#E4B0A2"/></svg>