<svg width="56" height="54" fill="none" xmlns="http://www.w3.org/2000/svg"><circle cx="27" cy="27" r="27" fill="#1E4D51"/><path d="M10.573 31.74c.24.62.585.94 1.035.96v.3c-.4-.03-.935-.045-1.605-.045-.86 0-1.5.015-1.92.045v-.3c.38-.02.65-.065.81-.135.17-.08.255-.22.255-.42 0-.17-.06-.405-.18-.705l-.915-2.46h-3.63l-.615 1.59c-.2.54-.3.95-.3 1.23 0 .31.105.535.315.675.22.14.55.215.99.225v.3c-.57-.03-1.145-.045-1.725-.045-.45 0-.825.015-1.125.045v-.3c.5-.12.895-.555 1.185-1.305l3.525-9.09h.24l3.66 9.435zm-2.64-3.06l-1.68-4.485-1.71 4.485h3.39zm8.016-6.3c1.77 0 3.095.445 3.975 1.335.88.88 1.32 2.165 1.32 3.855 0 1.09-.215 2.045-.645 2.865a4.532 4.532 0 01-1.875 1.905c-.81.44-1.78.66-2.91.66l-.87-.015c-.56-.02-.97-.03-1.23-.03-.82 0-1.44.015-1.86.045v-.3c.36-.02.62-.06.78-.12a.54.54 0 00.345-.345c.06-.17.09-.445.09-.825v-7.44c0-.38-.03-.655-.09-.825a.54.54 0 00-.345-.345c-.16-.06-.42-.1-.78-.12v-.3c.35.03.835.045 1.455.045l1.275-.015c.68-.02 1.135-.03 1.365-.03zm-.375.27c-.31 0-.545.035-.705.105a.598.598 0 00-.315.375c-.06.18-.09.45-.09.81v7.5c0 .36.03.63.09.81.06.18.165.305.315.375.16.07.4.105.72.105 1.06 0 1.895-.19 2.505-.57.61-.39 1.035-.955 1.275-1.695.25-.74.375-1.685.375-2.835s-.135-2.085-.405-2.805c-.27-.73-.71-1.275-1.32-1.635-.6-.36-1.415-.54-2.445-.54zm12.054-.48c.95 0 1.78.215 2.49.645.72.43 1.276 1.055 1.666 1.875.4.81.6 1.78.6 2.91 0 1.1-.206 2.075-.616 2.925-.4.85-.965 1.51-1.695 1.98-.72.47-1.54.705-2.46.705-.95 0-1.785-.215-2.505-.645-.71-.43-1.265-1.05-1.665-1.86-.39-.82-.585-1.795-.585-2.925 0-1.1.2-2.075.6-2.925.41-.85.976-1.51 1.696-1.98.73-.47 1.555-.705 2.474-.705zm-.06.27c-.64 0-1.205.225-1.695.675-.48.44-.855 1.06-1.125 1.86-.26.8-.39 1.715-.39 2.745 0 1.04.145 1.955.436 2.745.3.79.7 1.4 1.2 1.83.5.43 1.06.645 1.68.645.64 0 1.2-.22 1.68-.66.49-.45.864-1.075 1.125-1.875.27-.8.405-1.715.405-2.745 0-1.04-.15-1.955-.45-2.745-.29-.79-.686-1.4-1.186-1.83-.5-.43-1.06-.645-1.68-.645zm15.396 9.81c-.23.34-.46.585-.69.735-.23.15-.535.225-.915.225-.41 0-.75-.12-1.02-.36-.26-.24-.454-.66-.584-1.26l-.33-1.5c-.12-.52-.235-.92-.345-1.2-.1-.28-.255-.505-.465-.675-.21-.17-.506-.255-.886-.255h-1.425v3.45c0 .38.03.655.09.825.06.17.17.285.33.345.17.06.436.1.796.12v.3c-.46-.03-1.096-.045-1.906-.045-.86 0-1.5.015-1.92.045v-.3c.36-.02.62-.06.78-.12a.54.54 0 00.346-.345c.06-.17.09-.445.09-.825v-7.44c0-.38-.03-.655-.09-.825a.54.54 0 00-.346-.345c-.16-.06-.42-.1-.78-.12v-.3c.42.03 1.03.045 1.83.045l1.62-.015c.19-.01.406-.015.645-.015 1.16 0 2.05.245 2.67.735.63.48.945 1.105.945 1.875 0 .39-.095.785-.285 1.185-.18.39-.49.745-.93 1.065-.43.31-.995.52-1.694.63l.18.03c.66.11 1.14.31 1.44.6.3.29.52.75.66 1.38l.375 1.53c.1.46.205.78.315.96.11.18.26.27.45.27.17 0 .31-.045.42-.135.12-.09.255-.235.404-.435l.226.165zm-5.55-9.57c-.31 0-.544.035-.705.105a.598.598 0 00-.315.375c-.06.18-.09.45-.09.81v3.69h1.005c.99 0 1.67-.22 2.04-.66.37-.44.556-1.05.556-1.83 0-.82-.196-1.44-.586-1.86-.39-.42-1.025-.63-1.905-.63zm13.687 8.4c0 .57.035 1.21.105 1.92-.68-.03-1.825-.045-3.435-.045-1.92 0-3.37.015-4.35.045v-.3c.36-.02.62-.06.78-.12a.54.54 0 00.345-.345c.06-.17.09-.445.09-.825v-7.44c0-.38-.03-.655-.09-.825a.54.54 0 00-.345-.345c-.16-.06-.42-.1-.78-.12v-.3c.98.03 2.43.045 4.35.045 1.47 0 2.515-.015 3.135-.045-.07.66-.105 1.25-.105 1.77 0 .39.015.7.045.93h-.345c-.07-.65-.16-1.13-.27-1.44-.11-.32-.295-.55-.555-.69-.26-.15-.655-.225-1.185-.225h-1.245c-.36 0-.625.03-.795.09-.16.05-.27.16-.33.33s-.09.445-.09.825v3.54h.99c.35 0 .62-.08.81-.24.19-.17.315-.365.375-.585.07-.23.125-.515.165-.855l.045-.3h.345c-.03.42-.045.89-.045 1.41v.72c0 .51.03 1.22.09 2.13h-.345c-.01-.07-.04-.31-.09-.72-.05-.42-.19-.735-.42-.945-.22-.21-.53-.315-.93-.315h-.99v3.6c0 .38.03.655.09.825.06.17.17.285.33.345.17.05.435.075.795.075h1.095c.62 0 1.09-.08 1.41-.24.33-.17.57-.435.72-.795.15-.37.26-.91.33-1.62h.345c-.03.27-.045.63-.045 1.08z" fill="#E4B0A2"/></svg>