<svg width="50" height="34" fill="none" xmlns="http://www.w3.org/2000/svg"><path d="M0 4.25C0 1.903 1.865 0 4.167 0h41.666C48.135 0 50 1.903 50 4.25v25.5c0 2.347-1.865 4.25-4.167 4.25H4.167C1.865 34 0 32.097 0 29.75V4.25z" fill="#1E4D51"/><path d="M38.76 26.7c1.921 0 2.825-.748 3.615-3.014l3.458-9.895h-2.002l-2.32 7.656h-.04l-2.32-7.645h-2.059l3.337 9.418-.179.573a1.573 1.573 0 01-1.66 1.344 5.92 5.92 0 01-.578-.033v1.555c.248.035.499.051.749.05v-.01zm-6.673-4.956c-1.05 0-1.717-.519-1.717-1.303 0-.813.643-1.287 1.872-1.362l2.19-.14v.73c-.049 1.205-1.046 2.142-2.227 2.093a2.255 2.255 0 01-.118-.009v-.01zm-.528 1.535a3.245 3.245 0 002.905-1.652h.041v1.556h1.823V16.74c0-1.868-1.465-3.072-3.72-3.072-2.091 0-3.638 1.22-3.695 2.898h1.775a1.732 1.732 0 011.864-1.32c1.204 0 1.88.572 1.88 1.626v.714l-2.457.15c-2.288.14-3.524 1.095-3.524 2.756-.002 1.684 1.276 2.796 3.107 2.796v-.01zM20.994 11.932h2.27c1.71 0 2.687.93 2.687 2.565 0 1.636-.977 2.573-2.694 2.573h-2.263v-5.138zm-1.969-1.694V23.18h1.97v-4.412h2.726c2.221.122 4.118-1.616 4.238-3.881.006-.129.007-.257.002-.386.105-2.24-1.59-4.143-3.787-4.25a4.147 4.147 0 00-.387 0l-4.762-.013zm-6.537 2.415c-1.132-.066-2.1.656-2.637.656-.537 0-1.367-.622-2.263-.605a3.335 3.335 0 00-2.84 1.76c-1.22 2.142-.318 5.313.862 7.056.578.864 1.27 1.81 2.182 1.777.862-.033 1.204-.573 2.246-.573s1.351.573 2.263.555c.943-.016 1.538-.864 2.117-1.728a7.63 7.63 0 00.944-1.987 3.131 3.131 0 01-1.839-2.852 3.211 3.211 0 011.49-2.672 3.208 3.208 0 00-2.523-1.394l-.002.007zm-.707-1.143a2.54 2.54 0 01-2.05.988 2.998 2.998 0 01.732-2.166 3.04 3.04 0 012.033-1.071 3.19 3.19 0 01-.716 2.247" fill="#fff"/></svg>