<svg width="50" height="34" viewBox="0 0 50 34" fill="none" xmlns="http://www.w3.org/2000/svg">
<path d="M0 4.25C0 1.90279 1.86548 0 4.16667 0H45.8333C48.1345 0 50 1.90279 50 4.25V29.75C50 32.0972 48.1345 34 45.8333 34H4.16667C1.86548 34 0 32.0972 0 29.75V4.25Z" fill="#1E4D51"/>
<path d="M30.4672 27.0256H19.5307V6.97778H30.4672V27.0256Z" fill="#6C6BBD"/>
<path d="M20.4493 16.75C20.4493 12.6832 22.316 9.0606 25.2231 6.72606C23.0972 5.01893 20.4143 4 17.4985 4C10.5956 4 5.00009 9.70828 5.00009 16.75C5.00009 23.7917 10.5956 29.5 17.4985 29.5C20.4143 29.5 23.0972 28.4811 25.2231 26.7739C22.316 24.4394 20.4493 20.8168 20.4493 16.75Z" fill="#EB001B"/>
<path d="M45.2171 17C45.2171 24.0417 39.6215 29.75 32.7186 29.75C29.8028 29.75 27.1199 28.7311 24.9933 27.0239C27.9011 24.6894 29.7679 21.0668 29.7679 17C29.7679 12.9332 27.9011 9.3106 24.9933 6.97606C27.1199 5.26893 29.8028 4.25 32.7186 4.25C39.6215 4.25 45.2171 9.95828 45.2171 17Z" fill="#0099DF"/>
</svg>
